G04 #@! TF.GenerationSoftware,KiCad,Pcbnew,5.1.5+dfsg1-2build2*
G04 #@! TF.CreationDate,2020-08-31T21:39:47-07:00*
G04 #@! TF.ProjectId,adapter,61646170-7465-4722-9e6b-696361645f70,v01*
G04 #@! TF.SameCoordinates,Original*
G04 #@! TF.FileFunction,Legend,Bot*
G04 #@! TF.FilePolarity,Positive*
%FSLAX46Y46*%
G04 Gerber Fmt 4.6, Leading zero omitted, Abs format (unit mm)*
G04 Created by KiCad (PCBNEW 5.1.5+dfsg1-2build2) date 2020-08-31 21:39:47*
%MOMM*%
%LPD*%
G04 APERTURE LIST*
%ADD10C,0.076200*%
%ADD11C,0.062500*%
G04 APERTURE END LIST*
D10*
X132733142Y-113005809D02*
X132563809Y-113513809D01*
X132394476Y-113005809D01*
X132128380Y-113005809D02*
X132080000Y-113005809D01*
X132031619Y-113030000D01*
X132007428Y-113054190D01*
X131983238Y-113102571D01*
X131959047Y-113199333D01*
X131959047Y-113320285D01*
X131983238Y-113417047D01*
X132007428Y-113465428D01*
X132031619Y-113489619D01*
X132080000Y-113513809D01*
X132128380Y-113513809D01*
X132176761Y-113489619D01*
X132200952Y-113465428D01*
X132225142Y-113417047D01*
X132249333Y-113320285D01*
X132249333Y-113199333D01*
X132225142Y-113102571D01*
X132200952Y-113054190D01*
X132176761Y-113030000D01*
X132128380Y-113005809D01*
X131765523Y-113054190D02*
X131741333Y-113030000D01*
X131692952Y-113005809D01*
X131572000Y-113005809D01*
X131523619Y-113030000D01*
X131499428Y-113054190D01*
X131475238Y-113102571D01*
X131475238Y-113150952D01*
X131499428Y-113223523D01*
X131789714Y-113513809D01*
X131475238Y-113513809D01*
X138513517Y-103645909D02*
X138513517Y-103137909D01*
X138223231Y-103645909D01*
X138223231Y-103137909D01*
X137691041Y-103597528D02*
X137715231Y-103621719D01*
X137787803Y-103645909D01*
X137836184Y-103645909D01*
X137908755Y-103621719D01*
X137957136Y-103573338D01*
X137981327Y-103524957D01*
X138005517Y-103428195D01*
X138005517Y-103355623D01*
X137981327Y-103258861D01*
X137957136Y-103210480D01*
X137908755Y-103162100D01*
X137836184Y-103137909D01*
X137787803Y-103137909D01*
X137715231Y-103162100D01*
X137691041Y-103186290D01*
X136312184Y-103645909D02*
X136312184Y-103137909D01*
X136021898Y-103645909D01*
X136021898Y-103137909D01*
X135489708Y-103597528D02*
X135513898Y-103621719D01*
X135586470Y-103645909D01*
X135634850Y-103645909D01*
X135707422Y-103621719D01*
X135755803Y-103573338D01*
X135779993Y-103524957D01*
X135804184Y-103428195D01*
X135804184Y-103355623D01*
X135779993Y-103258861D01*
X135755803Y-103210480D01*
X135707422Y-103162100D01*
X135634850Y-103137909D01*
X135586470Y-103137909D01*
X135513898Y-103162100D01*
X135489708Y-103186290D01*
X138223231Y-104435728D02*
X138247422Y-104459919D01*
X138319993Y-104484109D01*
X138368374Y-104484109D01*
X138440946Y-104459919D01*
X138489327Y-104411538D01*
X138513517Y-104363157D01*
X138537708Y-104266395D01*
X138537708Y-104193823D01*
X138513517Y-104097061D01*
X138489327Y-104048680D01*
X138440946Y-104000300D01*
X138368374Y-103976109D01*
X138319993Y-103976109D01*
X138247422Y-104000300D01*
X138223231Y-104024490D01*
X138029708Y-104459919D02*
X137957136Y-104484109D01*
X137836184Y-104484109D01*
X137787803Y-104459919D01*
X137763612Y-104435728D01*
X137739422Y-104387347D01*
X137739422Y-104338966D01*
X137763612Y-104290585D01*
X137787803Y-104266395D01*
X137836184Y-104242204D01*
X137932946Y-104218014D01*
X137981327Y-104193823D01*
X138005517Y-104169633D01*
X138029708Y-104121252D01*
X138029708Y-104072871D01*
X138005517Y-104024490D01*
X137981327Y-104000300D01*
X137932946Y-103976109D01*
X137811993Y-103976109D01*
X137739422Y-104000300D01*
X137255612Y-104484109D02*
X137545898Y-104484109D01*
X137400755Y-104484109D02*
X137400755Y-103976109D01*
X137449136Y-104048680D01*
X137497517Y-104097061D01*
X137545898Y-104121252D01*
X136336374Y-103976109D02*
X136167041Y-104484109D01*
X135997708Y-103976109D01*
X135610660Y-104459919D02*
X135659041Y-104484109D01*
X135755803Y-104484109D01*
X135804184Y-104459919D01*
X135828374Y-104435728D01*
X135852565Y-104387347D01*
X135852565Y-104242204D01*
X135828374Y-104193823D01*
X135804184Y-104169633D01*
X135755803Y-104145442D01*
X135659041Y-104145442D01*
X135610660Y-104169633D01*
X135175231Y-104459919D02*
X135223612Y-104484109D01*
X135320374Y-104484109D01*
X135368755Y-104459919D01*
X135392946Y-104435728D01*
X135417136Y-104387347D01*
X135417136Y-104242204D01*
X135392946Y-104193823D01*
X135368755Y-104169633D01*
X135320374Y-104145442D01*
X135223612Y-104145442D01*
X135175231Y-104169633D01*
X138513517Y-105322309D02*
X138513517Y-104814309D01*
X138344184Y-105177166D01*
X138174850Y-104814309D01*
X138174850Y-105322309D01*
X137932946Y-105322309D02*
X137932946Y-104814309D01*
X137715231Y-105298119D02*
X137642660Y-105322309D01*
X137521708Y-105322309D01*
X137473327Y-105298119D01*
X137449136Y-105273928D01*
X137424946Y-105225547D01*
X137424946Y-105177166D01*
X137449136Y-105128785D01*
X137473327Y-105104595D01*
X137521708Y-105080404D01*
X137618470Y-105056214D01*
X137666850Y-105032023D01*
X137691041Y-105007833D01*
X137715231Y-104959452D01*
X137715231Y-104911071D01*
X137691041Y-104862690D01*
X137666850Y-104838500D01*
X137618470Y-104814309D01*
X137497517Y-104814309D01*
X137424946Y-104838500D01*
X137110470Y-104814309D02*
X137013708Y-104814309D01*
X136965327Y-104838500D01*
X136916946Y-104886880D01*
X136892755Y-104983642D01*
X136892755Y-105152976D01*
X136916946Y-105249738D01*
X136965327Y-105298119D01*
X137013708Y-105322309D01*
X137110470Y-105322309D01*
X137158850Y-105298119D01*
X137207231Y-105249738D01*
X137231422Y-105152976D01*
X137231422Y-104983642D01*
X137207231Y-104886880D01*
X137158850Y-104838500D01*
X137110470Y-104814309D01*
X135925136Y-104790119D02*
X136360565Y-105443261D01*
X135755803Y-105322309D02*
X135755803Y-104814309D01*
X135755803Y-105056214D02*
X135465517Y-105056214D01*
X135465517Y-105322309D02*
X135465517Y-104814309D01*
X135126850Y-104814309D02*
X135030089Y-104814309D01*
X134981708Y-104838500D01*
X134933327Y-104886880D01*
X134909136Y-104983642D01*
X134909136Y-105152976D01*
X134933327Y-105249738D01*
X134981708Y-105298119D01*
X135030089Y-105322309D01*
X135126850Y-105322309D01*
X135175231Y-105298119D01*
X135223612Y-105249738D01*
X135247803Y-105152976D01*
X135247803Y-104983642D01*
X135223612Y-104886880D01*
X135175231Y-104838500D01*
X135126850Y-104814309D01*
X134449517Y-105322309D02*
X134691422Y-105322309D01*
X134691422Y-104814309D01*
X134280184Y-105322309D02*
X134280184Y-104814309D01*
X134159231Y-104814309D01*
X134086660Y-104838500D01*
X134038279Y-104886880D01*
X134014089Y-104935261D01*
X133989898Y-105032023D01*
X133989898Y-105104595D01*
X134014089Y-105201357D01*
X134038279Y-105249738D01*
X134086660Y-105298119D01*
X134159231Y-105322309D01*
X134280184Y-105322309D01*
X138150660Y-105628319D02*
X138586089Y-106281461D01*
X138029708Y-105652509D02*
X137908755Y-106160509D01*
X137811993Y-105797652D01*
X137715231Y-106160509D01*
X137594279Y-105652509D01*
X137400755Y-106160509D02*
X137400755Y-105652509D01*
X137207231Y-105652509D01*
X137158850Y-105676700D01*
X137134660Y-105700890D01*
X137110470Y-105749271D01*
X137110470Y-105821842D01*
X137134660Y-105870223D01*
X137158850Y-105894414D01*
X137207231Y-105918604D01*
X137400755Y-105918604D01*
X135828374Y-106112128D02*
X135852565Y-106136319D01*
X135925136Y-106160509D01*
X135973517Y-106160509D01*
X136046089Y-106136319D01*
X136094470Y-106087938D01*
X136118660Y-106039557D01*
X136142850Y-105942795D01*
X136142850Y-105870223D01*
X136118660Y-105773461D01*
X136094470Y-105725080D01*
X136046089Y-105676700D01*
X135973517Y-105652509D01*
X135925136Y-105652509D01*
X135852565Y-105676700D01*
X135828374Y-105700890D01*
X135368755Y-106160509D02*
X135610660Y-106160509D01*
X135610660Y-105652509D01*
X135199422Y-106160509D02*
X135199422Y-105652509D01*
X134909136Y-106160509D02*
X135126850Y-105870223D01*
X134909136Y-105652509D02*
X135199422Y-105942795D01*
X138247422Y-106514900D02*
X138295803Y-106490709D01*
X138368374Y-106490709D01*
X138440946Y-106514900D01*
X138489327Y-106563280D01*
X138513517Y-106611661D01*
X138537708Y-106708423D01*
X138537708Y-106780995D01*
X138513517Y-106877757D01*
X138489327Y-106926138D01*
X138440946Y-106974519D01*
X138368374Y-106998709D01*
X138319993Y-106998709D01*
X138247422Y-106974519D01*
X138223231Y-106950328D01*
X138223231Y-106780995D01*
X138319993Y-106780995D01*
X138005517Y-106998709D02*
X138005517Y-106490709D01*
X137715231Y-106998709D01*
X137715231Y-106490709D01*
X137473327Y-106998709D02*
X137473327Y-106490709D01*
X137352374Y-106490709D01*
X137279803Y-106514900D01*
X137231422Y-106563280D01*
X137207231Y-106611661D01*
X137183041Y-106708423D01*
X137183041Y-106780995D01*
X137207231Y-106877757D01*
X137231422Y-106926138D01*
X137279803Y-106974519D01*
X137352374Y-106998709D01*
X137473327Y-106998709D01*
X136191231Y-106998709D02*
X136191231Y-106490709D01*
X136021898Y-106853566D01*
X135852565Y-106490709D01*
X135852565Y-106998709D01*
X135513898Y-106490709D02*
X135417136Y-106490709D01*
X135368755Y-106514900D01*
X135320374Y-106563280D01*
X135296184Y-106660042D01*
X135296184Y-106829376D01*
X135320374Y-106926138D01*
X135368755Y-106974519D01*
X135417136Y-106998709D01*
X135513898Y-106998709D01*
X135562279Y-106974519D01*
X135610660Y-106926138D01*
X135634850Y-106829376D01*
X135634850Y-106660042D01*
X135610660Y-106563280D01*
X135562279Y-106514900D01*
X135513898Y-106490709D01*
X135102660Y-106974519D02*
X135030089Y-106998709D01*
X134909136Y-106998709D01*
X134860755Y-106974519D01*
X134836565Y-106950328D01*
X134812374Y-106901947D01*
X134812374Y-106853566D01*
X134836565Y-106805185D01*
X134860755Y-106780995D01*
X134909136Y-106756804D01*
X135005898Y-106732614D01*
X135054279Y-106708423D01*
X135078470Y-106684233D01*
X135102660Y-106635852D01*
X135102660Y-106587471D01*
X135078470Y-106539090D01*
X135054279Y-106514900D01*
X135005898Y-106490709D01*
X134884946Y-106490709D01*
X134812374Y-106514900D01*
X134594660Y-106998709D02*
X134594660Y-106490709D01*
X138513517Y-107836909D02*
X138513517Y-107328909D01*
X138223231Y-107836909D01*
X138223231Y-107328909D01*
X137691041Y-107788528D02*
X137715231Y-107812719D01*
X137787803Y-107836909D01*
X137836184Y-107836909D01*
X137908755Y-107812719D01*
X137957136Y-107764338D01*
X137981327Y-107715957D01*
X138005517Y-107619195D01*
X138005517Y-107546623D01*
X137981327Y-107449861D01*
X137957136Y-107401480D01*
X137908755Y-107353100D01*
X137836184Y-107328909D01*
X137787803Y-107328909D01*
X137715231Y-107353100D01*
X137691041Y-107377290D01*
X136312184Y-107836909D02*
X136312184Y-107328909D01*
X136021898Y-107836909D01*
X136021898Y-107328909D01*
X135489708Y-107788528D02*
X135513898Y-107812719D01*
X135586470Y-107836909D01*
X135634850Y-107836909D01*
X135707422Y-107812719D01*
X135755803Y-107764338D01*
X135779993Y-107715957D01*
X135804184Y-107619195D01*
X135804184Y-107546623D01*
X135779993Y-107449861D01*
X135755803Y-107401480D01*
X135707422Y-107353100D01*
X135634850Y-107328909D01*
X135586470Y-107328909D01*
X135513898Y-107353100D01*
X135489708Y-107377290D01*
X138513517Y-108675109D02*
X138513517Y-108167109D01*
X138223231Y-108675109D01*
X138223231Y-108167109D01*
X137691041Y-108626728D02*
X137715231Y-108650919D01*
X137787803Y-108675109D01*
X137836184Y-108675109D01*
X137908755Y-108650919D01*
X137957136Y-108602538D01*
X137981327Y-108554157D01*
X138005517Y-108457395D01*
X138005517Y-108384823D01*
X137981327Y-108288061D01*
X137957136Y-108239680D01*
X137908755Y-108191300D01*
X137836184Y-108167109D01*
X137787803Y-108167109D01*
X137715231Y-108191300D01*
X137691041Y-108215490D01*
X136312184Y-108675109D02*
X136312184Y-108167109D01*
X136021898Y-108675109D01*
X136021898Y-108167109D01*
X135489708Y-108626728D02*
X135513898Y-108650919D01*
X135586470Y-108675109D01*
X135634850Y-108675109D01*
X135707422Y-108650919D01*
X135755803Y-108602538D01*
X135779993Y-108554157D01*
X135804184Y-108457395D01*
X135804184Y-108384823D01*
X135779993Y-108288061D01*
X135755803Y-108239680D01*
X135707422Y-108191300D01*
X135634850Y-108167109D01*
X135586470Y-108167109D01*
X135513898Y-108191300D01*
X135489708Y-108215490D01*
X138513517Y-109513309D02*
X138513517Y-109005309D01*
X138223231Y-109513309D01*
X138223231Y-109005309D01*
X137691041Y-109464928D02*
X137715231Y-109489119D01*
X137787803Y-109513309D01*
X137836184Y-109513309D01*
X137908755Y-109489119D01*
X137957136Y-109440738D01*
X137981327Y-109392357D01*
X138005517Y-109295595D01*
X138005517Y-109223023D01*
X137981327Y-109126261D01*
X137957136Y-109077880D01*
X137908755Y-109029500D01*
X137836184Y-109005309D01*
X137787803Y-109005309D01*
X137715231Y-109029500D01*
X137691041Y-109053690D01*
X136312184Y-109513309D02*
X136312184Y-109005309D01*
X136021898Y-109513309D01*
X136021898Y-109005309D01*
X135489708Y-109464928D02*
X135513898Y-109489119D01*
X135586470Y-109513309D01*
X135634850Y-109513309D01*
X135707422Y-109489119D01*
X135755803Y-109440738D01*
X135779993Y-109392357D01*
X135804184Y-109295595D01*
X135804184Y-109223023D01*
X135779993Y-109126261D01*
X135755803Y-109077880D01*
X135707422Y-109029500D01*
X135634850Y-109005309D01*
X135586470Y-109005309D01*
X135513898Y-109029500D01*
X135489708Y-109053690D01*
X138513517Y-110351509D02*
X138513517Y-109843509D01*
X138223231Y-110351509D01*
X138223231Y-109843509D01*
X137691041Y-110303128D02*
X137715231Y-110327319D01*
X137787803Y-110351509D01*
X137836184Y-110351509D01*
X137908755Y-110327319D01*
X137957136Y-110278938D01*
X137981327Y-110230557D01*
X138005517Y-110133795D01*
X138005517Y-110061223D01*
X137981327Y-109964461D01*
X137957136Y-109916080D01*
X137908755Y-109867700D01*
X137836184Y-109843509D01*
X137787803Y-109843509D01*
X137715231Y-109867700D01*
X137691041Y-109891890D01*
X136312184Y-110351509D02*
X136312184Y-109843509D01*
X136021898Y-110351509D01*
X136021898Y-109843509D01*
X135489708Y-110303128D02*
X135513898Y-110327319D01*
X135586470Y-110351509D01*
X135634850Y-110351509D01*
X135707422Y-110327319D01*
X135755803Y-110278938D01*
X135779993Y-110230557D01*
X135804184Y-110133795D01*
X135804184Y-110061223D01*
X135779993Y-109964461D01*
X135755803Y-109916080D01*
X135707422Y-109867700D01*
X135634850Y-109843509D01*
X135586470Y-109843509D01*
X135513898Y-109867700D01*
X135489708Y-109891890D01*
X138513517Y-111189709D02*
X138513517Y-110681709D01*
X138223231Y-111189709D01*
X138223231Y-110681709D01*
X137691041Y-111141328D02*
X137715231Y-111165519D01*
X137787803Y-111189709D01*
X137836184Y-111189709D01*
X137908755Y-111165519D01*
X137957136Y-111117138D01*
X137981327Y-111068757D01*
X138005517Y-110971995D01*
X138005517Y-110899423D01*
X137981327Y-110802661D01*
X137957136Y-110754280D01*
X137908755Y-110705900D01*
X137836184Y-110681709D01*
X137787803Y-110681709D01*
X137715231Y-110705900D01*
X137691041Y-110730090D01*
X136312184Y-111189709D02*
X136312184Y-110681709D01*
X136021898Y-111189709D01*
X136021898Y-110681709D01*
X135489708Y-111141328D02*
X135513898Y-111165519D01*
X135586470Y-111189709D01*
X135634850Y-111189709D01*
X135707422Y-111165519D01*
X135755803Y-111117138D01*
X135779993Y-111068757D01*
X135804184Y-110971995D01*
X135804184Y-110899423D01*
X135779993Y-110802661D01*
X135755803Y-110754280D01*
X135707422Y-110705900D01*
X135634850Y-110681709D01*
X135586470Y-110681709D01*
X135513898Y-110705900D01*
X135489708Y-110730090D01*
X135550184Y-85312250D02*
X135586470Y-85294107D01*
X135640898Y-85294107D01*
X135695327Y-85312250D01*
X135731612Y-85348535D01*
X135749755Y-85384821D01*
X135767898Y-85457392D01*
X135767898Y-85511821D01*
X135749755Y-85584392D01*
X135731612Y-85620678D01*
X135695327Y-85656964D01*
X135640898Y-85675107D01*
X135604612Y-85675107D01*
X135550184Y-85656964D01*
X135532041Y-85638821D01*
X135532041Y-85511821D01*
X135604612Y-85511821D01*
X135368755Y-85675107D02*
X135368755Y-85294107D01*
X135151041Y-85675107D01*
X135151041Y-85294107D01*
X134969612Y-85675107D02*
X134969612Y-85294107D01*
X134878898Y-85294107D01*
X134824470Y-85312250D01*
X134788184Y-85348535D01*
X134770041Y-85384821D01*
X134751898Y-85457392D01*
X134751898Y-85511821D01*
X134770041Y-85584392D01*
X134788184Y-85620678D01*
X134824470Y-85656964D01*
X134878898Y-85675107D01*
X134969612Y-85675107D01*
X133808470Y-85312250D02*
X133844755Y-85294107D01*
X133899184Y-85294107D01*
X133953612Y-85312250D01*
X133989898Y-85348535D01*
X134008041Y-85384821D01*
X134026184Y-85457392D01*
X134026184Y-85511821D01*
X134008041Y-85584392D01*
X133989898Y-85620678D01*
X133953612Y-85656964D01*
X133899184Y-85675107D01*
X133862898Y-85675107D01*
X133808470Y-85656964D01*
X133790327Y-85638821D01*
X133790327Y-85511821D01*
X133862898Y-85511821D01*
X133627041Y-85675107D02*
X133627041Y-85294107D01*
X133409327Y-85675107D01*
X133409327Y-85294107D01*
X133227898Y-85675107D02*
X133227898Y-85294107D01*
X133137184Y-85294107D01*
X133082755Y-85312250D01*
X133046470Y-85348535D01*
X133028327Y-85384821D01*
X133010184Y-85457392D01*
X133010184Y-85511821D01*
X133028327Y-85584392D01*
X133046470Y-85620678D01*
X133082755Y-85656964D01*
X133137184Y-85675107D01*
X133227898Y-85675107D01*
X135550184Y-85959950D02*
X135586470Y-85941807D01*
X135640898Y-85941807D01*
X135695327Y-85959950D01*
X135731612Y-85996235D01*
X135749755Y-86032521D01*
X135767898Y-86105092D01*
X135767898Y-86159521D01*
X135749755Y-86232092D01*
X135731612Y-86268378D01*
X135695327Y-86304664D01*
X135640898Y-86322807D01*
X135604612Y-86322807D01*
X135550184Y-86304664D01*
X135532041Y-86286521D01*
X135532041Y-86159521D01*
X135604612Y-86159521D01*
X135368755Y-86322807D02*
X135368755Y-85941807D01*
X135151041Y-86322807D01*
X135151041Y-85941807D01*
X134969612Y-86322807D02*
X134969612Y-85941807D01*
X134878898Y-85941807D01*
X134824470Y-85959950D01*
X134788184Y-85996235D01*
X134770041Y-86032521D01*
X134751898Y-86105092D01*
X134751898Y-86159521D01*
X134770041Y-86232092D01*
X134788184Y-86268378D01*
X134824470Y-86304664D01*
X134878898Y-86322807D01*
X134969612Y-86322807D01*
X134062470Y-85941807D02*
X133935470Y-86322807D01*
X133808470Y-85941807D01*
X133463755Y-86286521D02*
X133481898Y-86304664D01*
X133536327Y-86322807D01*
X133572612Y-86322807D01*
X133627041Y-86304664D01*
X133663327Y-86268378D01*
X133681470Y-86232092D01*
X133699612Y-86159521D01*
X133699612Y-86105092D01*
X133681470Y-86032521D01*
X133663327Y-85996235D01*
X133627041Y-85959950D01*
X133572612Y-85941807D01*
X133536327Y-85941807D01*
X133481898Y-85959950D01*
X133463755Y-85978092D01*
X133082755Y-86286521D02*
X133100898Y-86304664D01*
X133155327Y-86322807D01*
X133191612Y-86322807D01*
X133246041Y-86304664D01*
X133282327Y-86268378D01*
X133300470Y-86232092D01*
X133318612Y-86159521D01*
X133318612Y-86105092D01*
X133300470Y-86032521D01*
X133282327Y-85996235D01*
X133246041Y-85959950D01*
X133191612Y-85941807D01*
X133155327Y-85941807D01*
X133100898Y-85959950D01*
X133082755Y-85978092D01*
X135749755Y-86970507D02*
X135749755Y-86589507D01*
X135532041Y-86970507D01*
X135532041Y-86589507D01*
X135132898Y-86934221D02*
X135151041Y-86952364D01*
X135205470Y-86970507D01*
X135241755Y-86970507D01*
X135296184Y-86952364D01*
X135332470Y-86916078D01*
X135350612Y-86879792D01*
X135368755Y-86807221D01*
X135368755Y-86752792D01*
X135350612Y-86680221D01*
X135332470Y-86643935D01*
X135296184Y-86607650D01*
X135241755Y-86589507D01*
X135205470Y-86589507D01*
X135151041Y-86607650D01*
X135132898Y-86625792D01*
X133826612Y-86571364D02*
X134153184Y-87061221D01*
X133481898Y-86934221D02*
X133500041Y-86952364D01*
X133554470Y-86970507D01*
X133590755Y-86970507D01*
X133645184Y-86952364D01*
X133681470Y-86916078D01*
X133699612Y-86879792D01*
X133717755Y-86807221D01*
X133717755Y-86752792D01*
X133699612Y-86680221D01*
X133681470Y-86643935D01*
X133645184Y-86607650D01*
X133590755Y-86589507D01*
X133554470Y-86589507D01*
X133500041Y-86607650D01*
X133481898Y-86625792D01*
X133336755Y-86952364D02*
X133282327Y-86970507D01*
X133191612Y-86970507D01*
X133155327Y-86952364D01*
X133137184Y-86934221D01*
X133119041Y-86897935D01*
X133119041Y-86861650D01*
X133137184Y-86825364D01*
X133155327Y-86807221D01*
X133191612Y-86789078D01*
X133264184Y-86770935D01*
X133300470Y-86752792D01*
X133318612Y-86734650D01*
X133336755Y-86698364D01*
X133336755Y-86662078D01*
X133318612Y-86625792D01*
X133300470Y-86607650D01*
X133264184Y-86589507D01*
X133173470Y-86589507D01*
X133119041Y-86607650D01*
X135532041Y-87581921D02*
X135550184Y-87600064D01*
X135604612Y-87618207D01*
X135640898Y-87618207D01*
X135695327Y-87600064D01*
X135731612Y-87563778D01*
X135749755Y-87527492D01*
X135767898Y-87454921D01*
X135767898Y-87400492D01*
X135749755Y-87327921D01*
X135731612Y-87291635D01*
X135695327Y-87255350D01*
X135640898Y-87237207D01*
X135604612Y-87237207D01*
X135550184Y-87255350D01*
X135532041Y-87273492D01*
X135187327Y-87618207D02*
X135368755Y-87618207D01*
X135368755Y-87237207D01*
X135060327Y-87618207D02*
X135060327Y-87237207D01*
X134842612Y-87618207D02*
X135005898Y-87400492D01*
X134842612Y-87237207D02*
X135060327Y-87454921D01*
X134098755Y-87618207D02*
X134098755Y-87237207D01*
X133971755Y-87509350D01*
X133844755Y-87237207D01*
X133844755Y-87618207D01*
X133663327Y-87618207D02*
X133663327Y-87237207D01*
X133500041Y-87600064D02*
X133445612Y-87618207D01*
X133354898Y-87618207D01*
X133318612Y-87600064D01*
X133300470Y-87581921D01*
X133282327Y-87545635D01*
X133282327Y-87509350D01*
X133300470Y-87473064D01*
X133318612Y-87454921D01*
X133354898Y-87436778D01*
X133427470Y-87418635D01*
X133463755Y-87400492D01*
X133481898Y-87382350D01*
X133500041Y-87346064D01*
X133500041Y-87309778D01*
X133481898Y-87273492D01*
X133463755Y-87255350D01*
X133427470Y-87237207D01*
X133336755Y-87237207D01*
X133282327Y-87255350D01*
X133046470Y-87237207D02*
X132973898Y-87237207D01*
X132937612Y-87255350D01*
X132901327Y-87291635D01*
X132883184Y-87364207D01*
X132883184Y-87491207D01*
X132901327Y-87563778D01*
X132937612Y-87600064D01*
X132973898Y-87618207D01*
X133046470Y-87618207D01*
X133082755Y-87600064D01*
X133119041Y-87563778D01*
X133137184Y-87491207D01*
X133137184Y-87364207D01*
X133119041Y-87291635D01*
X133082755Y-87255350D01*
X133046470Y-87237207D01*
X135477612Y-87866764D02*
X135804184Y-88356621D01*
X135386898Y-87884907D02*
X135296184Y-88265907D01*
X135223612Y-87993764D01*
X135151041Y-88265907D01*
X135060327Y-87884907D01*
X134915184Y-88265907D02*
X134915184Y-87884907D01*
X134770041Y-87884907D01*
X134733755Y-87903050D01*
X134715612Y-87921192D01*
X134697470Y-87957478D01*
X134697470Y-88011907D01*
X134715612Y-88048192D01*
X134733755Y-88066335D01*
X134770041Y-88084478D01*
X134915184Y-88084478D01*
X133754041Y-87903050D02*
X133790327Y-87884907D01*
X133844755Y-87884907D01*
X133899184Y-87903050D01*
X133935470Y-87939335D01*
X133953612Y-87975621D01*
X133971755Y-88048192D01*
X133971755Y-88102621D01*
X133953612Y-88175192D01*
X133935470Y-88211478D01*
X133899184Y-88247764D01*
X133844755Y-88265907D01*
X133808470Y-88265907D01*
X133754041Y-88247764D01*
X133735898Y-88229621D01*
X133735898Y-88102621D01*
X133808470Y-88102621D01*
X133572612Y-88265907D02*
X133572612Y-87884907D01*
X133354898Y-88265907D01*
X133354898Y-87884907D01*
X133173470Y-88265907D02*
X133173470Y-87884907D01*
X133082755Y-87884907D01*
X133028327Y-87903050D01*
X132992041Y-87939335D01*
X132973898Y-87975621D01*
X132955755Y-88048192D01*
X132955755Y-88102621D01*
X132973898Y-88175192D01*
X132992041Y-88211478D01*
X133028327Y-88247764D01*
X133082755Y-88265907D01*
X133173470Y-88265907D01*
X135749755Y-88913607D02*
X135749755Y-88532607D01*
X135622755Y-88804750D01*
X135495755Y-88532607D01*
X135495755Y-88913607D01*
X135241755Y-88532607D02*
X135169184Y-88532607D01*
X135132898Y-88550750D01*
X135096612Y-88587035D01*
X135078470Y-88659607D01*
X135078470Y-88786607D01*
X135096612Y-88859178D01*
X135132898Y-88895464D01*
X135169184Y-88913607D01*
X135241755Y-88913607D01*
X135278041Y-88895464D01*
X135314327Y-88859178D01*
X135332470Y-88786607D01*
X135332470Y-88659607D01*
X135314327Y-88587035D01*
X135278041Y-88550750D01*
X135241755Y-88532607D01*
X134933327Y-88895464D02*
X134878898Y-88913607D01*
X134788184Y-88913607D01*
X134751898Y-88895464D01*
X134733755Y-88877321D01*
X134715612Y-88841035D01*
X134715612Y-88804750D01*
X134733755Y-88768464D01*
X134751898Y-88750321D01*
X134788184Y-88732178D01*
X134860755Y-88714035D01*
X134897041Y-88695892D01*
X134915184Y-88677750D01*
X134933327Y-88641464D01*
X134933327Y-88605178D01*
X134915184Y-88568892D01*
X134897041Y-88550750D01*
X134860755Y-88532607D01*
X134770041Y-88532607D01*
X134715612Y-88550750D01*
X134552327Y-88913607D02*
X134552327Y-88532607D01*
X133808470Y-88514464D02*
X134135041Y-89004321D01*
X133681470Y-88913607D02*
X133681470Y-88532607D01*
X133681470Y-88714035D02*
X133463755Y-88714035D01*
X133463755Y-88913607D02*
X133463755Y-88532607D01*
X133209755Y-88532607D02*
X133137184Y-88532607D01*
X133100898Y-88550750D01*
X133064612Y-88587035D01*
X133046470Y-88659607D01*
X133046470Y-88786607D01*
X133064612Y-88859178D01*
X133100898Y-88895464D01*
X133137184Y-88913607D01*
X133209755Y-88913607D01*
X133246041Y-88895464D01*
X133282327Y-88859178D01*
X133300470Y-88786607D01*
X133300470Y-88659607D01*
X133282327Y-88587035D01*
X133246041Y-88550750D01*
X133209755Y-88532607D01*
X132701755Y-88913607D02*
X132883184Y-88913607D01*
X132883184Y-88532607D01*
X132574755Y-88913607D02*
X132574755Y-88532607D01*
X132484041Y-88532607D01*
X132429612Y-88550750D01*
X132393327Y-88587035D01*
X132375184Y-88623321D01*
X132357041Y-88695892D01*
X132357041Y-88750321D01*
X132375184Y-88822892D01*
X132393327Y-88859178D01*
X132429612Y-88895464D01*
X132484041Y-88913607D01*
X132574755Y-88913607D01*
D11*
X135275676Y-89435400D02*
X135251866Y-89423495D01*
X135216152Y-89423495D01*
X135180438Y-89435400D01*
X135156628Y-89459209D01*
X135144723Y-89483019D01*
X135132819Y-89530638D01*
X135132819Y-89566352D01*
X135144723Y-89613971D01*
X135156628Y-89637780D01*
X135180438Y-89661590D01*
X135216152Y-89673495D01*
X135239961Y-89673495D01*
X135275676Y-89661590D01*
X135287580Y-89649685D01*
X135287580Y-89566352D01*
X135239961Y-89566352D01*
X135394723Y-89673495D02*
X135394723Y-89423495D01*
X135537580Y-89673495D01*
X135537580Y-89423495D01*
X135656628Y-89673495D02*
X135656628Y-89423495D01*
X135716152Y-89423495D01*
X135751866Y-89435400D01*
X135775676Y-89459209D01*
X135787580Y-89483019D01*
X135799485Y-89530638D01*
X135799485Y-89566352D01*
X135787580Y-89613971D01*
X135775676Y-89637780D01*
X135751866Y-89661590D01*
X135716152Y-89673495D01*
X135656628Y-89673495D01*
X136037580Y-89673495D02*
X135894723Y-89673495D01*
X135966152Y-89673495D02*
X135966152Y-89423495D01*
X135942342Y-89459209D01*
X135918533Y-89483019D01*
X135894723Y-89494923D01*
M02*
