G04 #@! TF.GenerationSoftware,KiCad,Pcbnew,5.1.5+dfsg1-2build2*
G04 #@! TF.CreationDate,2020-08-31T21:39:47-07:00*
G04 #@! TF.ProjectId,adapter,61646170-7465-4722-9e6b-696361645f70,v01*
G04 #@! TF.SameCoordinates,Original*
G04 #@! TF.FileFunction,Legend,Top*
G04 #@! TF.FilePolarity,Positive*
%FSLAX46Y46*%
G04 Gerber Fmt 4.6, Leading zero omitted, Abs format (unit mm)*
G04 Created by KiCad (PCBNEW 5.1.5+dfsg1-2build2) date 2020-08-31 21:39:47*
%MOMM*%
%LPD*%
G04 APERTURE LIST*
%ADD10C,0.120000*%
%ADD11C,0.062500*%
G04 APERTURE END LIST*
D10*
X141465001Y-112375001D02*
X146665001Y-112375001D01*
X141465001Y-89455001D02*
X141465001Y-112375001D01*
X146665001Y-86855001D02*
X146665001Y-112375001D01*
X141465001Y-89455001D02*
X144065001Y-89455001D01*
X144065001Y-89455001D02*
X144065001Y-86855001D01*
X144065001Y-86855001D02*
X146665001Y-86855001D01*
X141465001Y-88185001D02*
X141465001Y-86855001D01*
X141465001Y-86855001D02*
X142795001Y-86855001D01*
X132220000Y-98485000D02*
X133042470Y-98485000D01*
X134927530Y-98485000D02*
X135750000Y-98485000D01*
X133657530Y-98485000D02*
X134312470Y-98485000D01*
X132220000Y-92200000D02*
X132220000Y-98485000D01*
X135750000Y-90745000D02*
X135750000Y-98485000D01*
X132220000Y-92200000D02*
X132786529Y-92200000D01*
X133913471Y-92200000D02*
X134056529Y-92200000D01*
X134110000Y-92146529D02*
X134110000Y-92003471D01*
X134110000Y-90876529D02*
X134110000Y-90745000D01*
X134110000Y-90745000D02*
X134312470Y-90745000D01*
X134927530Y-90745000D02*
X135750000Y-90745000D01*
X132220000Y-91440000D02*
X132220000Y-90680000D01*
X132220000Y-90680000D02*
X133350000Y-90680000D01*
D11*
X140371533Y-86416390D02*
X140371533Y-86773533D01*
X140347723Y-86844961D01*
X140300104Y-86892580D01*
X140228676Y-86916390D01*
X140181057Y-86916390D01*
X140585819Y-86464009D02*
X140609628Y-86440200D01*
X140657247Y-86416390D01*
X140776295Y-86416390D01*
X140823914Y-86440200D01*
X140847723Y-86464009D01*
X140871533Y-86511628D01*
X140871533Y-86559247D01*
X140847723Y-86630676D01*
X140562009Y-86916390D01*
X140871533Y-86916390D01*
X132167333Y-89667590D02*
X132167333Y-90024733D01*
X132143523Y-90096161D01*
X132095904Y-90143780D01*
X132024476Y-90167590D01*
X131976857Y-90167590D01*
X132667333Y-90167590D02*
X132381619Y-90167590D01*
X132524476Y-90167590D02*
X132524476Y-89667590D01*
X132476857Y-89739019D01*
X132429238Y-89786638D01*
X132381619Y-89810447D01*
M02*
