M48
; DRILL file {KiCad 5.1.5+dfsg1-2build2} date Mon 31 Aug 2020 09:39:51 PM PDT
; FORMAT={-:-/ absolute / inch / decimal}
; #@! TF.CreationDate,2020-08-31T21:39:51-07:00
; #@! TF.GenerationSoftware,Kicad,Pcbnew,5.1.5+dfsg1-2build2
FMAT,2
INCH
T1C0.0150
T2C0.0256
T3C0.0394
%
G90
G05
T1
X5.3Y-4.175
X5.7219Y-3.6719
T2
X5.25Y-3.6
X5.25Y-3.65
X5.25Y-3.7
X5.25Y-3.75
X5.25Y-3.8
X5.25Y-3.85
X5.3Y-3.6
X5.3Y-3.65
X5.3Y-3.7
X5.3Y-3.75
X5.3Y-3.8
X5.3Y-3.85
T3
X5.6219Y-3.4719
X5.6219Y-3.5719
X5.6219Y-3.6719
X5.6219Y-3.7719
X5.6219Y-3.8719
X5.6219Y-3.9719
X5.6219Y-4.0719
X5.6219Y-4.1719
X5.6219Y-4.2719
X5.6219Y-4.3719
X5.7219Y-3.4719
X5.7219Y-3.5719
X5.7219Y-3.6719
X5.7219Y-3.7719
X5.7219Y-3.8719
X5.7219Y-3.9719
X5.7219Y-4.0719
X5.7219Y-4.1719
X5.7219Y-4.2719
X5.7219Y-4.3719
T0
M30
