G04 #@! TF.GenerationSoftware,KiCad,Pcbnew,5.1.5+dfsg1-2build2*
G04 #@! TF.CreationDate,2020-08-31T21:39:47-07:00*
G04 #@! TF.ProjectId,adapter,61646170-7465-4722-9e6b-696361645f70,v01*
G04 #@! TF.SameCoordinates,Original*
G04 #@! TF.FileFunction,Soldermask,Bot*
G04 #@! TF.FilePolarity,Negative*
%FSLAX46Y46*%
G04 Gerber Fmt 4.6, Leading zero omitted, Abs format (unit mm)*
G04 Created by KiCad (PCBNEW 5.1.5+dfsg1-2build2) date 2020-08-31 21:39:47*
%MOMM*%
%LPD*%
G04 APERTURE LIST*
%ADD10C,0.100000*%
G04 APERTURE END LIST*
D10*
G36*
X145597755Y-110178818D02*
G01*
X145761690Y-110246722D01*
X145909228Y-110345304D01*
X146034698Y-110470774D01*
X146133280Y-110618312D01*
X146201184Y-110782247D01*
X146235801Y-110956280D01*
X146235801Y-111133722D01*
X146201184Y-111307755D01*
X146133280Y-111471690D01*
X146034698Y-111619228D01*
X145909228Y-111744698D01*
X145761690Y-111843280D01*
X145597755Y-111911184D01*
X145423722Y-111945801D01*
X145246280Y-111945801D01*
X145072247Y-111911184D01*
X144908312Y-111843280D01*
X144760774Y-111744698D01*
X144635304Y-111619228D01*
X144536722Y-111471690D01*
X144468818Y-111307755D01*
X144434201Y-111133722D01*
X144434201Y-110956280D01*
X144468818Y-110782247D01*
X144536722Y-110618312D01*
X144635304Y-110470774D01*
X144760774Y-110345304D01*
X144908312Y-110246722D01*
X145072247Y-110178818D01*
X145246280Y-110144201D01*
X145423722Y-110144201D01*
X145597755Y-110178818D01*
G37*
G36*
X143057755Y-110178818D02*
G01*
X143221690Y-110246722D01*
X143369228Y-110345304D01*
X143494698Y-110470774D01*
X143593280Y-110618312D01*
X143661184Y-110782247D01*
X143695801Y-110956280D01*
X143695801Y-111133722D01*
X143661184Y-111307755D01*
X143593280Y-111471690D01*
X143494698Y-111619228D01*
X143369228Y-111744698D01*
X143221690Y-111843280D01*
X143057755Y-111911184D01*
X142883722Y-111945801D01*
X142706280Y-111945801D01*
X142532247Y-111911184D01*
X142368312Y-111843280D01*
X142220774Y-111744698D01*
X142095304Y-111619228D01*
X141996722Y-111471690D01*
X141928818Y-111307755D01*
X141894201Y-111133722D01*
X141894201Y-110956280D01*
X141928818Y-110782247D01*
X141996722Y-110618312D01*
X142095304Y-110470774D01*
X142220774Y-110345304D01*
X142368312Y-110246722D01*
X142532247Y-110178818D01*
X142706280Y-110144201D01*
X142883722Y-110144201D01*
X143057755Y-110178818D01*
G37*
G36*
X145597755Y-107638818D02*
G01*
X145761690Y-107706722D01*
X145909228Y-107805304D01*
X146034698Y-107930774D01*
X146133280Y-108078312D01*
X146201184Y-108242247D01*
X146235801Y-108416280D01*
X146235801Y-108593722D01*
X146201184Y-108767755D01*
X146133280Y-108931690D01*
X146034698Y-109079228D01*
X145909228Y-109204698D01*
X145761690Y-109303280D01*
X145597755Y-109371184D01*
X145423722Y-109405801D01*
X145246280Y-109405801D01*
X145072247Y-109371184D01*
X144908312Y-109303280D01*
X144760774Y-109204698D01*
X144635304Y-109079228D01*
X144536722Y-108931690D01*
X144468818Y-108767755D01*
X144434201Y-108593722D01*
X144434201Y-108416280D01*
X144468818Y-108242247D01*
X144536722Y-108078312D01*
X144635304Y-107930774D01*
X144760774Y-107805304D01*
X144908312Y-107706722D01*
X145072247Y-107638818D01*
X145246280Y-107604201D01*
X145423722Y-107604201D01*
X145597755Y-107638818D01*
G37*
G36*
X143057755Y-107638818D02*
G01*
X143221690Y-107706722D01*
X143369228Y-107805304D01*
X143494698Y-107930774D01*
X143593280Y-108078312D01*
X143661184Y-108242247D01*
X143695801Y-108416280D01*
X143695801Y-108593722D01*
X143661184Y-108767755D01*
X143593280Y-108931690D01*
X143494698Y-109079228D01*
X143369228Y-109204698D01*
X143221690Y-109303280D01*
X143057755Y-109371184D01*
X142883722Y-109405801D01*
X142706280Y-109405801D01*
X142532247Y-109371184D01*
X142368312Y-109303280D01*
X142220774Y-109204698D01*
X142095304Y-109079228D01*
X141996722Y-108931690D01*
X141928818Y-108767755D01*
X141894201Y-108593722D01*
X141894201Y-108416280D01*
X141928818Y-108242247D01*
X141996722Y-108078312D01*
X142095304Y-107930774D01*
X142220774Y-107805304D01*
X142368312Y-107706722D01*
X142532247Y-107638818D01*
X142706280Y-107604201D01*
X142883722Y-107604201D01*
X143057755Y-107638818D01*
G37*
G36*
X145597755Y-105098818D02*
G01*
X145761690Y-105166722D01*
X145909228Y-105265304D01*
X146034698Y-105390774D01*
X146133280Y-105538312D01*
X146201184Y-105702247D01*
X146235801Y-105876280D01*
X146235801Y-106053722D01*
X146201184Y-106227755D01*
X146133280Y-106391690D01*
X146034698Y-106539228D01*
X145909228Y-106664698D01*
X145761690Y-106763280D01*
X145597755Y-106831184D01*
X145423722Y-106865801D01*
X145246280Y-106865801D01*
X145072247Y-106831184D01*
X144908312Y-106763280D01*
X144760774Y-106664698D01*
X144635304Y-106539228D01*
X144536722Y-106391690D01*
X144468818Y-106227755D01*
X144434201Y-106053722D01*
X144434201Y-105876280D01*
X144468818Y-105702247D01*
X144536722Y-105538312D01*
X144635304Y-105390774D01*
X144760774Y-105265304D01*
X144908312Y-105166722D01*
X145072247Y-105098818D01*
X145246280Y-105064201D01*
X145423722Y-105064201D01*
X145597755Y-105098818D01*
G37*
G36*
X143057755Y-105098818D02*
G01*
X143221690Y-105166722D01*
X143369228Y-105265304D01*
X143494698Y-105390774D01*
X143593280Y-105538312D01*
X143661184Y-105702247D01*
X143695801Y-105876280D01*
X143695801Y-106053722D01*
X143661184Y-106227755D01*
X143593280Y-106391690D01*
X143494698Y-106539228D01*
X143369228Y-106664698D01*
X143221690Y-106763280D01*
X143057755Y-106831184D01*
X142883722Y-106865801D01*
X142706280Y-106865801D01*
X142532247Y-106831184D01*
X142368312Y-106763280D01*
X142220774Y-106664698D01*
X142095304Y-106539228D01*
X141996722Y-106391690D01*
X141928818Y-106227755D01*
X141894201Y-106053722D01*
X141894201Y-105876280D01*
X141928818Y-105702247D01*
X141996722Y-105538312D01*
X142095304Y-105390774D01*
X142220774Y-105265304D01*
X142368312Y-105166722D01*
X142532247Y-105098818D01*
X142706280Y-105064201D01*
X142883722Y-105064201D01*
X143057755Y-105098818D01*
G37*
G36*
X143057755Y-102558818D02*
G01*
X143221690Y-102626722D01*
X143369228Y-102725304D01*
X143494698Y-102850774D01*
X143593280Y-102998312D01*
X143661184Y-103162247D01*
X143695801Y-103336280D01*
X143695801Y-103513722D01*
X143661184Y-103687755D01*
X143593280Y-103851690D01*
X143494698Y-103999228D01*
X143369228Y-104124698D01*
X143221690Y-104223280D01*
X143057755Y-104291184D01*
X142883722Y-104325801D01*
X142706280Y-104325801D01*
X142532247Y-104291184D01*
X142368312Y-104223280D01*
X142220774Y-104124698D01*
X142095304Y-103999228D01*
X141996722Y-103851690D01*
X141928818Y-103687755D01*
X141894201Y-103513722D01*
X141894201Y-103336280D01*
X141928818Y-103162247D01*
X141996722Y-102998312D01*
X142095304Y-102850774D01*
X142220774Y-102725304D01*
X142368312Y-102626722D01*
X142532247Y-102558818D01*
X142706280Y-102524201D01*
X142883722Y-102524201D01*
X143057755Y-102558818D01*
G37*
G36*
X145597755Y-102558818D02*
G01*
X145761690Y-102626722D01*
X145909228Y-102725304D01*
X146034698Y-102850774D01*
X146133280Y-102998312D01*
X146201184Y-103162247D01*
X146235801Y-103336280D01*
X146235801Y-103513722D01*
X146201184Y-103687755D01*
X146133280Y-103851690D01*
X146034698Y-103999228D01*
X145909228Y-104124698D01*
X145761690Y-104223280D01*
X145597755Y-104291184D01*
X145423722Y-104325801D01*
X145246280Y-104325801D01*
X145072247Y-104291184D01*
X144908312Y-104223280D01*
X144760774Y-104124698D01*
X144635304Y-103999228D01*
X144536722Y-103851690D01*
X144468818Y-103687755D01*
X144434201Y-103513722D01*
X144434201Y-103336280D01*
X144468818Y-103162247D01*
X144536722Y-102998312D01*
X144635304Y-102850774D01*
X144760774Y-102725304D01*
X144908312Y-102626722D01*
X145072247Y-102558818D01*
X145246280Y-102524201D01*
X145423722Y-102524201D01*
X145597755Y-102558818D01*
G37*
G36*
X145597755Y-100018818D02*
G01*
X145761690Y-100086722D01*
X145909228Y-100185304D01*
X146034698Y-100310774D01*
X146133280Y-100458312D01*
X146201184Y-100622247D01*
X146235801Y-100796280D01*
X146235801Y-100973722D01*
X146201184Y-101147755D01*
X146133280Y-101311690D01*
X146034698Y-101459228D01*
X145909228Y-101584698D01*
X145761690Y-101683280D01*
X145597755Y-101751184D01*
X145423722Y-101785801D01*
X145246280Y-101785801D01*
X145072247Y-101751184D01*
X144908312Y-101683280D01*
X144760774Y-101584698D01*
X144635304Y-101459228D01*
X144536722Y-101311690D01*
X144468818Y-101147755D01*
X144434201Y-100973722D01*
X144434201Y-100796280D01*
X144468818Y-100622247D01*
X144536722Y-100458312D01*
X144635304Y-100310774D01*
X144760774Y-100185304D01*
X144908312Y-100086722D01*
X145072247Y-100018818D01*
X145246280Y-99984201D01*
X145423722Y-99984201D01*
X145597755Y-100018818D01*
G37*
G36*
X143057755Y-100018818D02*
G01*
X143221690Y-100086722D01*
X143369228Y-100185304D01*
X143494698Y-100310774D01*
X143593280Y-100458312D01*
X143661184Y-100622247D01*
X143695801Y-100796280D01*
X143695801Y-100973722D01*
X143661184Y-101147755D01*
X143593280Y-101311690D01*
X143494698Y-101459228D01*
X143369228Y-101584698D01*
X143221690Y-101683280D01*
X143057755Y-101751184D01*
X142883722Y-101785801D01*
X142706280Y-101785801D01*
X142532247Y-101751184D01*
X142368312Y-101683280D01*
X142220774Y-101584698D01*
X142095304Y-101459228D01*
X141996722Y-101311690D01*
X141928818Y-101147755D01*
X141894201Y-100973722D01*
X141894201Y-100796280D01*
X141928818Y-100622247D01*
X141996722Y-100458312D01*
X142095304Y-100310774D01*
X142220774Y-100185304D01*
X142368312Y-100086722D01*
X142532247Y-100018818D01*
X142706280Y-99984201D01*
X142883722Y-99984201D01*
X143057755Y-100018818D01*
G37*
G36*
X145597755Y-97478818D02*
G01*
X145761690Y-97546722D01*
X145909228Y-97645304D01*
X146034698Y-97770774D01*
X146133280Y-97918312D01*
X146201184Y-98082247D01*
X146235801Y-98256280D01*
X146235801Y-98433722D01*
X146201184Y-98607755D01*
X146133280Y-98771690D01*
X146034698Y-98919228D01*
X145909228Y-99044698D01*
X145761690Y-99143280D01*
X145597755Y-99211184D01*
X145423722Y-99245801D01*
X145246280Y-99245801D01*
X145072247Y-99211184D01*
X144908312Y-99143280D01*
X144760774Y-99044698D01*
X144635304Y-98919228D01*
X144536722Y-98771690D01*
X144468818Y-98607755D01*
X144434201Y-98433722D01*
X144434201Y-98256280D01*
X144468818Y-98082247D01*
X144536722Y-97918312D01*
X144635304Y-97770774D01*
X144760774Y-97645304D01*
X144908312Y-97546722D01*
X145072247Y-97478818D01*
X145246280Y-97444201D01*
X145423722Y-97444201D01*
X145597755Y-97478818D01*
G37*
G36*
X143057755Y-97478818D02*
G01*
X143221690Y-97546722D01*
X143369228Y-97645304D01*
X143494698Y-97770774D01*
X143593280Y-97918312D01*
X143661184Y-98082247D01*
X143695801Y-98256280D01*
X143695801Y-98433722D01*
X143661184Y-98607755D01*
X143593280Y-98771690D01*
X143494698Y-98919228D01*
X143369228Y-99044698D01*
X143221690Y-99143280D01*
X143057755Y-99211184D01*
X142883722Y-99245801D01*
X142706280Y-99245801D01*
X142532247Y-99211184D01*
X142368312Y-99143280D01*
X142220774Y-99044698D01*
X142095304Y-98919228D01*
X141996722Y-98771690D01*
X141928818Y-98607755D01*
X141894201Y-98433722D01*
X141894201Y-98256280D01*
X141928818Y-98082247D01*
X141996722Y-97918312D01*
X142095304Y-97770774D01*
X142220774Y-97645304D01*
X142368312Y-97546722D01*
X142532247Y-97478818D01*
X142706280Y-97444201D01*
X142883722Y-97444201D01*
X143057755Y-97478818D01*
G37*
G36*
X133510663Y-97260367D02*
G01*
X133610902Y-97301887D01*
X133701116Y-97362166D01*
X133777834Y-97438884D01*
X133838113Y-97529098D01*
X133879633Y-97629337D01*
X133900800Y-97735751D01*
X133900800Y-97844249D01*
X133879633Y-97950663D01*
X133838113Y-98050902D01*
X133777834Y-98141116D01*
X133701116Y-98217834D01*
X133610902Y-98278113D01*
X133510663Y-98319633D01*
X133404249Y-98340800D01*
X133295751Y-98340800D01*
X133189337Y-98319633D01*
X133089098Y-98278113D01*
X132998884Y-98217834D01*
X132922166Y-98141116D01*
X132861887Y-98050902D01*
X132820367Y-97950663D01*
X132799200Y-97844249D01*
X132799200Y-97735751D01*
X132820367Y-97629337D01*
X132861887Y-97529098D01*
X132922166Y-97438884D01*
X132998884Y-97362166D01*
X133089098Y-97301887D01*
X133189337Y-97260367D01*
X133295751Y-97239200D01*
X133404249Y-97239200D01*
X133510663Y-97260367D01*
G37*
G36*
X134780663Y-97260367D02*
G01*
X134880902Y-97301887D01*
X134971116Y-97362166D01*
X135047834Y-97438884D01*
X135108113Y-97529098D01*
X135149633Y-97629337D01*
X135170800Y-97735751D01*
X135170800Y-97844249D01*
X135149633Y-97950663D01*
X135108113Y-98050902D01*
X135047834Y-98141116D01*
X134971116Y-98217834D01*
X134880902Y-98278113D01*
X134780663Y-98319633D01*
X134674249Y-98340800D01*
X134565751Y-98340800D01*
X134459337Y-98319633D01*
X134359098Y-98278113D01*
X134268884Y-98217834D01*
X134192166Y-98141116D01*
X134131887Y-98050902D01*
X134090367Y-97950663D01*
X134069200Y-97844249D01*
X134069200Y-97735751D01*
X134090367Y-97629337D01*
X134131887Y-97529098D01*
X134192166Y-97438884D01*
X134268884Y-97362166D01*
X134359098Y-97301887D01*
X134459337Y-97260367D01*
X134565751Y-97239200D01*
X134674249Y-97239200D01*
X134780663Y-97260367D01*
G37*
G36*
X134780663Y-95990367D02*
G01*
X134880902Y-96031887D01*
X134971116Y-96092166D01*
X135047834Y-96168884D01*
X135108113Y-96259098D01*
X135149633Y-96359337D01*
X135170800Y-96465751D01*
X135170800Y-96574249D01*
X135149633Y-96680663D01*
X135108113Y-96780902D01*
X135047834Y-96871116D01*
X134971116Y-96947834D01*
X134880902Y-97008113D01*
X134780663Y-97049633D01*
X134674249Y-97070800D01*
X134565751Y-97070800D01*
X134459337Y-97049633D01*
X134359098Y-97008113D01*
X134268884Y-96947834D01*
X134192166Y-96871116D01*
X134131887Y-96780902D01*
X134090367Y-96680663D01*
X134069200Y-96574249D01*
X134069200Y-96465751D01*
X134090367Y-96359337D01*
X134131887Y-96259098D01*
X134192166Y-96168884D01*
X134268884Y-96092166D01*
X134359098Y-96031887D01*
X134459337Y-95990367D01*
X134565751Y-95969200D01*
X134674249Y-95969200D01*
X134780663Y-95990367D01*
G37*
G36*
X133510663Y-95990367D02*
G01*
X133610902Y-96031887D01*
X133701116Y-96092166D01*
X133777834Y-96168884D01*
X133838113Y-96259098D01*
X133879633Y-96359337D01*
X133900800Y-96465751D01*
X133900800Y-96574249D01*
X133879633Y-96680663D01*
X133838113Y-96780902D01*
X133777834Y-96871116D01*
X133701116Y-96947834D01*
X133610902Y-97008113D01*
X133510663Y-97049633D01*
X133404249Y-97070800D01*
X133295751Y-97070800D01*
X133189337Y-97049633D01*
X133089098Y-97008113D01*
X132998884Y-96947834D01*
X132922166Y-96871116D01*
X132861887Y-96780902D01*
X132820367Y-96680663D01*
X132799200Y-96574249D01*
X132799200Y-96465751D01*
X132820367Y-96359337D01*
X132861887Y-96259098D01*
X132922166Y-96168884D01*
X132998884Y-96092166D01*
X133089098Y-96031887D01*
X133189337Y-95990367D01*
X133295751Y-95969200D01*
X133404249Y-95969200D01*
X133510663Y-95990367D01*
G37*
G36*
X145597755Y-94938818D02*
G01*
X145761690Y-95006722D01*
X145909228Y-95105304D01*
X146034698Y-95230774D01*
X146133280Y-95378312D01*
X146201184Y-95542247D01*
X146235801Y-95716280D01*
X146235801Y-95893722D01*
X146201184Y-96067755D01*
X146133280Y-96231690D01*
X146034698Y-96379228D01*
X145909228Y-96504698D01*
X145761690Y-96603280D01*
X145597755Y-96671184D01*
X145423722Y-96705801D01*
X145246280Y-96705801D01*
X145072247Y-96671184D01*
X144908312Y-96603280D01*
X144760774Y-96504698D01*
X144635304Y-96379228D01*
X144536722Y-96231690D01*
X144468818Y-96067755D01*
X144434201Y-95893722D01*
X144434201Y-95716280D01*
X144468818Y-95542247D01*
X144536722Y-95378312D01*
X144635304Y-95230774D01*
X144760774Y-95105304D01*
X144908312Y-95006722D01*
X145072247Y-94938818D01*
X145246280Y-94904201D01*
X145423722Y-94904201D01*
X145597755Y-94938818D01*
G37*
G36*
X143057755Y-94938818D02*
G01*
X143221690Y-95006722D01*
X143369228Y-95105304D01*
X143494698Y-95230774D01*
X143593280Y-95378312D01*
X143661184Y-95542247D01*
X143695801Y-95716280D01*
X143695801Y-95893722D01*
X143661184Y-96067755D01*
X143593280Y-96231690D01*
X143494698Y-96379228D01*
X143369228Y-96504698D01*
X143221690Y-96603280D01*
X143057755Y-96671184D01*
X142883722Y-96705801D01*
X142706280Y-96705801D01*
X142532247Y-96671184D01*
X142368312Y-96603280D01*
X142220774Y-96504698D01*
X142095304Y-96379228D01*
X141996722Y-96231690D01*
X141928818Y-96067755D01*
X141894201Y-95893722D01*
X141894201Y-95716280D01*
X141928818Y-95542247D01*
X141996722Y-95378312D01*
X142095304Y-95230774D01*
X142220774Y-95105304D01*
X142368312Y-95006722D01*
X142532247Y-94938818D01*
X142706280Y-94904201D01*
X142883722Y-94904201D01*
X143057755Y-94938818D01*
G37*
G36*
X134780663Y-94720367D02*
G01*
X134880902Y-94761887D01*
X134971116Y-94822166D01*
X135047834Y-94898884D01*
X135108113Y-94989098D01*
X135149633Y-95089337D01*
X135170800Y-95195751D01*
X135170800Y-95304249D01*
X135149633Y-95410663D01*
X135108113Y-95510902D01*
X135047834Y-95601116D01*
X134971116Y-95677834D01*
X134880902Y-95738113D01*
X134780663Y-95779633D01*
X134674249Y-95800800D01*
X134565751Y-95800800D01*
X134459337Y-95779633D01*
X134359098Y-95738113D01*
X134268884Y-95677834D01*
X134192166Y-95601116D01*
X134131887Y-95510902D01*
X134090367Y-95410663D01*
X134069200Y-95304249D01*
X134069200Y-95195751D01*
X134090367Y-95089337D01*
X134131887Y-94989098D01*
X134192166Y-94898884D01*
X134268884Y-94822166D01*
X134359098Y-94761887D01*
X134459337Y-94720367D01*
X134565751Y-94699200D01*
X134674249Y-94699200D01*
X134780663Y-94720367D01*
G37*
G36*
X133510663Y-94720367D02*
G01*
X133610902Y-94761887D01*
X133701116Y-94822166D01*
X133777834Y-94898884D01*
X133838113Y-94989098D01*
X133879633Y-95089337D01*
X133900800Y-95195751D01*
X133900800Y-95304249D01*
X133879633Y-95410663D01*
X133838113Y-95510902D01*
X133777834Y-95601116D01*
X133701116Y-95677834D01*
X133610902Y-95738113D01*
X133510663Y-95779633D01*
X133404249Y-95800800D01*
X133295751Y-95800800D01*
X133189337Y-95779633D01*
X133089098Y-95738113D01*
X132998884Y-95677834D01*
X132922166Y-95601116D01*
X132861887Y-95510902D01*
X132820367Y-95410663D01*
X132799200Y-95304249D01*
X132799200Y-95195751D01*
X132820367Y-95089337D01*
X132861887Y-94989098D01*
X132922166Y-94898884D01*
X132998884Y-94822166D01*
X133089098Y-94761887D01*
X133189337Y-94720367D01*
X133295751Y-94699200D01*
X133404249Y-94699200D01*
X133510663Y-94720367D01*
G37*
G36*
X134780663Y-93450367D02*
G01*
X134880902Y-93491887D01*
X134971116Y-93552166D01*
X135047834Y-93628884D01*
X135108113Y-93719098D01*
X135149633Y-93819337D01*
X135170800Y-93925751D01*
X135170800Y-94034249D01*
X135149633Y-94140663D01*
X135108113Y-94240902D01*
X135047834Y-94331116D01*
X134971116Y-94407834D01*
X134880902Y-94468113D01*
X134780663Y-94509633D01*
X134674249Y-94530800D01*
X134565751Y-94530800D01*
X134459337Y-94509633D01*
X134359098Y-94468113D01*
X134268884Y-94407834D01*
X134192166Y-94331116D01*
X134131887Y-94240902D01*
X134090367Y-94140663D01*
X134069200Y-94034249D01*
X134069200Y-93925751D01*
X134090367Y-93819337D01*
X134131887Y-93719098D01*
X134192166Y-93628884D01*
X134268884Y-93552166D01*
X134359098Y-93491887D01*
X134459337Y-93450367D01*
X134565751Y-93429200D01*
X134674249Y-93429200D01*
X134780663Y-93450367D01*
G37*
G36*
X133510663Y-93450367D02*
G01*
X133610902Y-93491887D01*
X133701116Y-93552166D01*
X133777834Y-93628884D01*
X133838113Y-93719098D01*
X133879633Y-93819337D01*
X133900800Y-93925751D01*
X133900800Y-94034249D01*
X133879633Y-94140663D01*
X133838113Y-94240902D01*
X133777834Y-94331116D01*
X133701116Y-94407834D01*
X133610902Y-94468113D01*
X133510663Y-94509633D01*
X133404249Y-94530800D01*
X133295751Y-94530800D01*
X133189337Y-94509633D01*
X133089098Y-94468113D01*
X132998884Y-94407834D01*
X132922166Y-94331116D01*
X132861887Y-94240902D01*
X132820367Y-94140663D01*
X132799200Y-94034249D01*
X132799200Y-93925751D01*
X132820367Y-93819337D01*
X132861887Y-93719098D01*
X132922166Y-93628884D01*
X132998884Y-93552166D01*
X133089098Y-93491887D01*
X133189337Y-93450367D01*
X133295751Y-93429200D01*
X133404249Y-93429200D01*
X133510663Y-93450367D01*
G37*
G36*
X145597755Y-92398818D02*
G01*
X145761690Y-92466722D01*
X145909228Y-92565304D01*
X146034698Y-92690774D01*
X146133280Y-92838312D01*
X146201184Y-93002247D01*
X146235801Y-93176280D01*
X146235801Y-93353722D01*
X146201184Y-93527755D01*
X146133280Y-93691690D01*
X146034698Y-93839228D01*
X145909228Y-93964698D01*
X145761690Y-94063280D01*
X145597755Y-94131184D01*
X145423722Y-94165801D01*
X145246280Y-94165801D01*
X145072247Y-94131184D01*
X144908312Y-94063280D01*
X144760774Y-93964698D01*
X144635304Y-93839228D01*
X144536722Y-93691690D01*
X144468818Y-93527755D01*
X144434201Y-93353722D01*
X144434201Y-93176280D01*
X144468818Y-93002247D01*
X144536722Y-92838312D01*
X144635304Y-92690774D01*
X144760774Y-92565304D01*
X144908312Y-92466722D01*
X145072247Y-92398818D01*
X145246280Y-92364201D01*
X145423722Y-92364201D01*
X145597755Y-92398818D01*
G37*
G36*
X143057755Y-92398818D02*
G01*
X143221690Y-92466722D01*
X143369228Y-92565304D01*
X143494698Y-92690774D01*
X143593280Y-92838312D01*
X143661184Y-93002247D01*
X143695801Y-93176280D01*
X143695801Y-93353722D01*
X143661184Y-93527755D01*
X143593280Y-93691690D01*
X143494698Y-93839228D01*
X143369228Y-93964698D01*
X143221690Y-94063280D01*
X143057755Y-94131184D01*
X142883722Y-94165801D01*
X142706280Y-94165801D01*
X142532247Y-94131184D01*
X142368312Y-94063280D01*
X142220774Y-93964698D01*
X142095304Y-93839228D01*
X141996722Y-93691690D01*
X141928818Y-93527755D01*
X141894201Y-93353722D01*
X141894201Y-93176280D01*
X141928818Y-93002247D01*
X141996722Y-92838312D01*
X142095304Y-92690774D01*
X142220774Y-92565304D01*
X142368312Y-92466722D01*
X142532247Y-92398818D01*
X142706280Y-92364201D01*
X142883722Y-92364201D01*
X143057755Y-92398818D01*
G37*
G36*
X134780663Y-92180367D02*
G01*
X134880902Y-92221887D01*
X134971116Y-92282166D01*
X135047834Y-92358884D01*
X135108113Y-92449098D01*
X135149633Y-92549337D01*
X135170800Y-92655751D01*
X135170800Y-92764249D01*
X135149633Y-92870663D01*
X135108113Y-92970902D01*
X135047834Y-93061116D01*
X134971116Y-93137834D01*
X134880902Y-93198113D01*
X134780663Y-93239633D01*
X134674249Y-93260800D01*
X134565751Y-93260800D01*
X134459337Y-93239633D01*
X134359098Y-93198113D01*
X134268884Y-93137834D01*
X134192166Y-93061116D01*
X134131887Y-92970902D01*
X134090367Y-92870663D01*
X134069200Y-92764249D01*
X134069200Y-92655751D01*
X134090367Y-92549337D01*
X134131887Y-92449098D01*
X134192166Y-92358884D01*
X134268884Y-92282166D01*
X134359098Y-92221887D01*
X134459337Y-92180367D01*
X134565751Y-92159200D01*
X134674249Y-92159200D01*
X134780663Y-92180367D01*
G37*
G36*
X133510663Y-92180367D02*
G01*
X133610902Y-92221887D01*
X133701116Y-92282166D01*
X133777834Y-92358884D01*
X133838113Y-92449098D01*
X133879633Y-92549337D01*
X133900800Y-92655751D01*
X133900800Y-92764249D01*
X133879633Y-92870663D01*
X133838113Y-92970902D01*
X133777834Y-93061116D01*
X133701116Y-93137834D01*
X133610902Y-93198113D01*
X133510663Y-93239633D01*
X133404249Y-93260800D01*
X133295751Y-93260800D01*
X133189337Y-93239633D01*
X133089098Y-93198113D01*
X132998884Y-93137834D01*
X132922166Y-93061116D01*
X132861887Y-92970902D01*
X132820367Y-92870663D01*
X132799200Y-92764249D01*
X132799200Y-92655751D01*
X132820367Y-92549337D01*
X132861887Y-92449098D01*
X132922166Y-92358884D01*
X132998884Y-92282166D01*
X133089098Y-92221887D01*
X133189337Y-92180367D01*
X133295751Y-92159200D01*
X133404249Y-92159200D01*
X133510663Y-92180367D01*
G37*
G36*
X133900800Y-91990800D02*
G01*
X132799200Y-91990800D01*
X132799200Y-90889200D01*
X133900800Y-90889200D01*
X133900800Y-91990800D01*
G37*
G36*
X134780663Y-90910367D02*
G01*
X134880902Y-90951887D01*
X134971116Y-91012166D01*
X135047834Y-91088884D01*
X135108113Y-91179098D01*
X135149633Y-91279337D01*
X135170800Y-91385751D01*
X135170800Y-91494249D01*
X135149633Y-91600663D01*
X135108113Y-91700902D01*
X135047834Y-91791116D01*
X134971116Y-91867834D01*
X134880902Y-91928113D01*
X134780663Y-91969633D01*
X134674249Y-91990800D01*
X134565751Y-91990800D01*
X134459337Y-91969633D01*
X134359098Y-91928113D01*
X134268884Y-91867834D01*
X134192166Y-91791116D01*
X134131887Y-91700902D01*
X134090367Y-91600663D01*
X134069200Y-91494249D01*
X134069200Y-91385751D01*
X134090367Y-91279337D01*
X134131887Y-91179098D01*
X134192166Y-91088884D01*
X134268884Y-91012166D01*
X134359098Y-90951887D01*
X134459337Y-90910367D01*
X134565751Y-90889200D01*
X134674249Y-90889200D01*
X134780663Y-90910367D01*
G37*
G36*
X145597755Y-89858818D02*
G01*
X145761690Y-89926722D01*
X145909228Y-90025304D01*
X146034698Y-90150774D01*
X146133280Y-90298312D01*
X146201184Y-90462247D01*
X146235801Y-90636280D01*
X146235801Y-90813722D01*
X146201184Y-90987755D01*
X146133280Y-91151690D01*
X146034698Y-91299228D01*
X145909228Y-91424698D01*
X145761690Y-91523280D01*
X145597755Y-91591184D01*
X145423722Y-91625801D01*
X145246280Y-91625801D01*
X145072247Y-91591184D01*
X144908312Y-91523280D01*
X144760774Y-91424698D01*
X144635304Y-91299228D01*
X144536722Y-91151690D01*
X144468818Y-90987755D01*
X144434201Y-90813722D01*
X144434201Y-90636280D01*
X144468818Y-90462247D01*
X144536722Y-90298312D01*
X144635304Y-90150774D01*
X144760774Y-90025304D01*
X144908312Y-89926722D01*
X145072247Y-89858818D01*
X145246280Y-89824201D01*
X145423722Y-89824201D01*
X145597755Y-89858818D01*
G37*
G36*
X143057755Y-89858818D02*
G01*
X143221690Y-89926722D01*
X143369228Y-90025304D01*
X143494698Y-90150774D01*
X143593280Y-90298312D01*
X143661184Y-90462247D01*
X143695801Y-90636280D01*
X143695801Y-90813722D01*
X143661184Y-90987755D01*
X143593280Y-91151690D01*
X143494698Y-91299228D01*
X143369228Y-91424698D01*
X143221690Y-91523280D01*
X143057755Y-91591184D01*
X142883722Y-91625801D01*
X142706280Y-91625801D01*
X142532247Y-91591184D01*
X142368312Y-91523280D01*
X142220774Y-91424698D01*
X142095304Y-91299228D01*
X141996722Y-91151690D01*
X141928818Y-90987755D01*
X141894201Y-90813722D01*
X141894201Y-90636280D01*
X141928818Y-90462247D01*
X141996722Y-90298312D01*
X142095304Y-90150774D01*
X142220774Y-90025304D01*
X142368312Y-89926722D01*
X142532247Y-89858818D01*
X142706280Y-89824201D01*
X142883722Y-89824201D01*
X143057755Y-89858818D01*
G37*
G36*
X145597755Y-87318818D02*
G01*
X145761690Y-87386722D01*
X145909228Y-87485304D01*
X146034698Y-87610774D01*
X146133280Y-87758312D01*
X146201184Y-87922247D01*
X146235801Y-88096280D01*
X146235801Y-88273722D01*
X146201184Y-88447755D01*
X146133280Y-88611690D01*
X146034698Y-88759228D01*
X145909228Y-88884698D01*
X145761690Y-88983280D01*
X145597755Y-89051184D01*
X145423722Y-89085801D01*
X145246280Y-89085801D01*
X145072247Y-89051184D01*
X144908312Y-88983280D01*
X144760774Y-88884698D01*
X144635304Y-88759228D01*
X144536722Y-88611690D01*
X144468818Y-88447755D01*
X144434201Y-88273722D01*
X144434201Y-88096280D01*
X144468818Y-87922247D01*
X144536722Y-87758312D01*
X144635304Y-87610774D01*
X144760774Y-87485304D01*
X144908312Y-87386722D01*
X145072247Y-87318818D01*
X145246280Y-87284201D01*
X145423722Y-87284201D01*
X145597755Y-87318818D01*
G37*
G36*
X143695801Y-89085801D02*
G01*
X141894201Y-89085801D01*
X141894201Y-87284201D01*
X143695801Y-87284201D01*
X143695801Y-89085801D01*
G37*
M02*
