G04 #@! TF.GenerationSoftware,KiCad,Pcbnew,5.1.5+dfsg1-2build2*
G04 #@! TF.CreationDate,2020-08-31T21:39:47-07:00*
G04 #@! TF.ProjectId,adapter,61646170-7465-4722-9e6b-696361645f70,v01*
G04 #@! TF.SameCoordinates,Original*
G04 #@! TF.FileFunction,Copper,L2,Bot*
G04 #@! TF.FilePolarity,Positive*
%FSLAX46Y46*%
G04 Gerber Fmt 4.6, Leading zero omitted, Abs format (unit mm)*
G04 Created by KiCad (PCBNEW 5.1.5+dfsg1-2build2) date 2020-08-31 21:39:47*
%MOMM*%
%LPD*%
G04 APERTURE LIST*
%ADD10C,0.100000*%
%ADD11R,1.700000X1.700000*%
%ADD12O,1.700000X1.700000*%
%ADD13R,1.000000X1.000000*%
%ADD14O,1.000000X1.000000*%
%ADD15C,0.500000*%
%ADD16C,0.762000*%
%ADD17C,0.381000*%
%ADD18C,0.254000*%
G04 APERTURE END LIST*
D10*
G36*
X134561200Y-89335800D02*
G01*
X133561200Y-89335800D01*
X133561200Y-89835800D01*
X134561200Y-89835800D01*
X134561200Y-89335800D01*
G37*
D11*
X142795001Y-88185001D03*
D12*
X145335001Y-88185001D03*
X142795001Y-90725001D03*
X145335001Y-90725001D03*
X142795001Y-93265001D03*
X145335001Y-93265001D03*
X142795001Y-95805001D03*
X145335001Y-95805001D03*
X142795001Y-98345001D03*
X145335001Y-98345001D03*
X142795001Y-100885001D03*
X145335001Y-100885001D03*
X142795001Y-103425001D03*
X145335001Y-103425001D03*
X142795001Y-105965001D03*
X145335001Y-105965001D03*
X142795001Y-108505001D03*
X145335001Y-108505001D03*
X142795001Y-111045001D03*
X145335001Y-111045001D03*
D13*
X133350000Y-91440000D03*
D14*
X134620000Y-91440000D03*
X133350000Y-92710000D03*
X134620000Y-92710000D03*
X133350000Y-93980000D03*
X134620000Y-93980000D03*
X133350000Y-95250000D03*
X134620000Y-95250000D03*
X133350000Y-96520000D03*
X134620000Y-96520000D03*
X133350000Y-97790000D03*
X134620000Y-97790000D03*
D15*
X134561200Y-89585800D03*
X133561200Y-89585800D03*
D16*
X145335001Y-93265001D03*
X134620000Y-106045000D03*
D17*
X133350000Y-89797000D02*
X133561200Y-89585800D01*
X133350000Y-91440000D02*
X133350000Y-89797000D01*
D18*
X140440399Y-95805001D02*
X142795001Y-95805001D01*
X136804400Y-99441000D02*
X140440399Y-95805001D01*
X131546600Y-96520000D02*
X131546600Y-99441000D01*
X131546600Y-99441000D02*
X136804400Y-99441000D01*
X133350000Y-96520000D02*
X131546600Y-96520000D01*
X148459201Y-93265001D02*
X145335001Y-93265001D01*
X148513800Y-93319600D02*
X148459201Y-93265001D01*
X148513800Y-113842800D02*
X148513800Y-93319600D01*
X138684000Y-113842800D02*
X148513800Y-113842800D01*
X134620000Y-109778800D02*
X138684000Y-113842800D01*
X134620000Y-106045000D02*
X134620000Y-109778800D01*
D17*
X134620000Y-89644600D02*
X134561200Y-89585800D01*
X134620000Y-91440000D02*
X134620000Y-89644600D01*
D18*
G36*
X147751800Y-113080800D02*
G01*
X138999631Y-113080800D01*
X135382000Y-109463170D01*
X135382000Y-106719841D01*
X135409179Y-106692662D01*
X135520368Y-106526256D01*
X135596956Y-106341356D01*
X135636000Y-106145067D01*
X135636000Y-105944933D01*
X135596956Y-105748644D01*
X135520368Y-105563744D01*
X135409179Y-105397338D01*
X135267662Y-105255821D01*
X135101256Y-105144632D01*
X134916356Y-105068044D01*
X134720067Y-105029000D01*
X134519933Y-105029000D01*
X134323644Y-105068044D01*
X134138744Y-105144632D01*
X133972338Y-105255821D01*
X133830821Y-105397338D01*
X133719632Y-105563744D01*
X133643044Y-105748644D01*
X133604000Y-105944933D01*
X133604000Y-106145067D01*
X133643044Y-106341356D01*
X133719632Y-106526256D01*
X133830821Y-106692662D01*
X133858000Y-106719841D01*
X133858001Y-109741367D01*
X133854314Y-109778800D01*
X133869027Y-109928178D01*
X133912599Y-110071815D01*
X133983355Y-110204192D01*
X134054721Y-110291151D01*
X134078579Y-110320222D01*
X134107649Y-110344079D01*
X138118721Y-114355152D01*
X138142578Y-114384222D01*
X138171648Y-114408079D01*
X138258607Y-114479445D01*
X138329364Y-114517265D01*
X138390985Y-114550202D01*
X138534622Y-114593774D01*
X138646574Y-114604800D01*
X138646577Y-114604800D01*
X138684000Y-114608486D01*
X138721423Y-114604800D01*
X148476374Y-114604800D01*
X148513800Y-114608486D01*
X148551225Y-114604800D01*
X148551226Y-114604800D01*
X148628101Y-114597229D01*
X148628101Y-114846100D01*
X131432841Y-114846100D01*
X131445069Y-100196686D01*
X131509174Y-100203000D01*
X131509175Y-100203000D01*
X131546600Y-100206686D01*
X131584026Y-100203000D01*
X136766977Y-100203000D01*
X136804400Y-100206686D01*
X136841823Y-100203000D01*
X136841826Y-100203000D01*
X136953778Y-100191974D01*
X137097415Y-100148402D01*
X137229792Y-100077645D01*
X137345822Y-99982422D01*
X137369684Y-99953346D01*
X140756030Y-96567001D01*
X141518159Y-96567001D01*
X141641526Y-96751633D01*
X141848369Y-96958476D01*
X142030535Y-97080196D01*
X141913646Y-97149823D01*
X141697413Y-97344732D01*
X141523360Y-97578081D01*
X141398176Y-97840902D01*
X141353525Y-97988111D01*
X141474846Y-98218001D01*
X142668001Y-98218001D01*
X142668001Y-98198001D01*
X142922001Y-98198001D01*
X142922001Y-98218001D01*
X142942001Y-98218001D01*
X142942001Y-98472001D01*
X142922001Y-98472001D01*
X142922001Y-98492001D01*
X142668001Y-98492001D01*
X142668001Y-98472001D01*
X141474846Y-98472001D01*
X141353525Y-98701891D01*
X141398176Y-98849100D01*
X141523360Y-99111921D01*
X141697413Y-99345270D01*
X141913646Y-99540179D01*
X142030535Y-99609806D01*
X141848369Y-99731526D01*
X141641526Y-99938369D01*
X141479011Y-100181590D01*
X141367069Y-100451843D01*
X141310001Y-100738741D01*
X141310001Y-101031261D01*
X141367069Y-101318159D01*
X141479011Y-101588412D01*
X141641526Y-101831633D01*
X141848369Y-102038476D01*
X142022761Y-102155001D01*
X141848369Y-102271526D01*
X141641526Y-102478369D01*
X141479011Y-102721590D01*
X141367069Y-102991843D01*
X141310001Y-103278741D01*
X141310001Y-103571261D01*
X141367069Y-103858159D01*
X141479011Y-104128412D01*
X141641526Y-104371633D01*
X141848369Y-104578476D01*
X142022761Y-104695001D01*
X141848369Y-104811526D01*
X141641526Y-105018369D01*
X141479011Y-105261590D01*
X141367069Y-105531843D01*
X141310001Y-105818741D01*
X141310001Y-106111261D01*
X141367069Y-106398159D01*
X141479011Y-106668412D01*
X141641526Y-106911633D01*
X141848369Y-107118476D01*
X142022761Y-107235001D01*
X141848369Y-107351526D01*
X141641526Y-107558369D01*
X141479011Y-107801590D01*
X141367069Y-108071843D01*
X141310001Y-108358741D01*
X141310001Y-108651261D01*
X141367069Y-108938159D01*
X141479011Y-109208412D01*
X141641526Y-109451633D01*
X141848369Y-109658476D01*
X142022761Y-109775001D01*
X141848369Y-109891526D01*
X141641526Y-110098369D01*
X141479011Y-110341590D01*
X141367069Y-110611843D01*
X141310001Y-110898741D01*
X141310001Y-111191261D01*
X141367069Y-111478159D01*
X141479011Y-111748412D01*
X141641526Y-111991633D01*
X141848369Y-112198476D01*
X142091590Y-112360991D01*
X142361843Y-112472933D01*
X142648741Y-112530001D01*
X142941261Y-112530001D01*
X143228159Y-112472933D01*
X143498412Y-112360991D01*
X143741633Y-112198476D01*
X143948476Y-111991633D01*
X144065001Y-111817241D01*
X144181526Y-111991633D01*
X144388369Y-112198476D01*
X144631590Y-112360991D01*
X144901843Y-112472933D01*
X145188741Y-112530001D01*
X145481261Y-112530001D01*
X145768159Y-112472933D01*
X146038412Y-112360991D01*
X146281633Y-112198476D01*
X146488476Y-111991633D01*
X146650991Y-111748412D01*
X146762933Y-111478159D01*
X146820001Y-111191261D01*
X146820001Y-110898741D01*
X146762933Y-110611843D01*
X146650991Y-110341590D01*
X146488476Y-110098369D01*
X146281633Y-109891526D01*
X146107241Y-109775001D01*
X146281633Y-109658476D01*
X146488476Y-109451633D01*
X146650991Y-109208412D01*
X146762933Y-108938159D01*
X146820001Y-108651261D01*
X146820001Y-108358741D01*
X146762933Y-108071843D01*
X146650991Y-107801590D01*
X146488476Y-107558369D01*
X146281633Y-107351526D01*
X146107241Y-107235001D01*
X146281633Y-107118476D01*
X146488476Y-106911633D01*
X146650991Y-106668412D01*
X146762933Y-106398159D01*
X146820001Y-106111261D01*
X146820001Y-105818741D01*
X146762933Y-105531843D01*
X146650991Y-105261590D01*
X146488476Y-105018369D01*
X146281633Y-104811526D01*
X146107241Y-104695001D01*
X146281633Y-104578476D01*
X146488476Y-104371633D01*
X146650991Y-104128412D01*
X146762933Y-103858159D01*
X146820001Y-103571261D01*
X146820001Y-103278741D01*
X146762933Y-102991843D01*
X146650991Y-102721590D01*
X146488476Y-102478369D01*
X146281633Y-102271526D01*
X146107241Y-102155001D01*
X146281633Y-102038476D01*
X146488476Y-101831633D01*
X146650991Y-101588412D01*
X146762933Y-101318159D01*
X146820001Y-101031261D01*
X146820001Y-100738741D01*
X146762933Y-100451843D01*
X146650991Y-100181590D01*
X146488476Y-99938369D01*
X146281633Y-99731526D01*
X146107241Y-99615001D01*
X146281633Y-99498476D01*
X146488476Y-99291633D01*
X146650991Y-99048412D01*
X146762933Y-98778159D01*
X146820001Y-98491261D01*
X146820001Y-98198741D01*
X146762933Y-97911843D01*
X146650991Y-97641590D01*
X146488476Y-97398369D01*
X146281633Y-97191526D01*
X146107241Y-97075001D01*
X146281633Y-96958476D01*
X146488476Y-96751633D01*
X146650991Y-96508412D01*
X146762933Y-96238159D01*
X146820001Y-95951261D01*
X146820001Y-95658741D01*
X146762933Y-95371843D01*
X146650991Y-95101590D01*
X146488476Y-94858369D01*
X146281633Y-94651526D01*
X146107241Y-94535001D01*
X146281633Y-94418476D01*
X146488476Y-94211633D01*
X146611843Y-94027001D01*
X147751801Y-94027001D01*
X147751800Y-113080800D01*
G37*
X147751800Y-113080800D02*
X138999631Y-113080800D01*
X135382000Y-109463170D01*
X135382000Y-106719841D01*
X135409179Y-106692662D01*
X135520368Y-106526256D01*
X135596956Y-106341356D01*
X135636000Y-106145067D01*
X135636000Y-105944933D01*
X135596956Y-105748644D01*
X135520368Y-105563744D01*
X135409179Y-105397338D01*
X135267662Y-105255821D01*
X135101256Y-105144632D01*
X134916356Y-105068044D01*
X134720067Y-105029000D01*
X134519933Y-105029000D01*
X134323644Y-105068044D01*
X134138744Y-105144632D01*
X133972338Y-105255821D01*
X133830821Y-105397338D01*
X133719632Y-105563744D01*
X133643044Y-105748644D01*
X133604000Y-105944933D01*
X133604000Y-106145067D01*
X133643044Y-106341356D01*
X133719632Y-106526256D01*
X133830821Y-106692662D01*
X133858000Y-106719841D01*
X133858001Y-109741367D01*
X133854314Y-109778800D01*
X133869027Y-109928178D01*
X133912599Y-110071815D01*
X133983355Y-110204192D01*
X134054721Y-110291151D01*
X134078579Y-110320222D01*
X134107649Y-110344079D01*
X138118721Y-114355152D01*
X138142578Y-114384222D01*
X138171648Y-114408079D01*
X138258607Y-114479445D01*
X138329364Y-114517265D01*
X138390985Y-114550202D01*
X138534622Y-114593774D01*
X138646574Y-114604800D01*
X138646577Y-114604800D01*
X138684000Y-114608486D01*
X138721423Y-114604800D01*
X148476374Y-114604800D01*
X148513800Y-114608486D01*
X148551225Y-114604800D01*
X148551226Y-114604800D01*
X148628101Y-114597229D01*
X148628101Y-114846100D01*
X131432841Y-114846100D01*
X131445069Y-100196686D01*
X131509174Y-100203000D01*
X131509175Y-100203000D01*
X131546600Y-100206686D01*
X131584026Y-100203000D01*
X136766977Y-100203000D01*
X136804400Y-100206686D01*
X136841823Y-100203000D01*
X136841826Y-100203000D01*
X136953778Y-100191974D01*
X137097415Y-100148402D01*
X137229792Y-100077645D01*
X137345822Y-99982422D01*
X137369684Y-99953346D01*
X140756030Y-96567001D01*
X141518159Y-96567001D01*
X141641526Y-96751633D01*
X141848369Y-96958476D01*
X142030535Y-97080196D01*
X141913646Y-97149823D01*
X141697413Y-97344732D01*
X141523360Y-97578081D01*
X141398176Y-97840902D01*
X141353525Y-97988111D01*
X141474846Y-98218001D01*
X142668001Y-98218001D01*
X142668001Y-98198001D01*
X142922001Y-98198001D01*
X142922001Y-98218001D01*
X142942001Y-98218001D01*
X142942001Y-98472001D01*
X142922001Y-98472001D01*
X142922001Y-98492001D01*
X142668001Y-98492001D01*
X142668001Y-98472001D01*
X141474846Y-98472001D01*
X141353525Y-98701891D01*
X141398176Y-98849100D01*
X141523360Y-99111921D01*
X141697413Y-99345270D01*
X141913646Y-99540179D01*
X142030535Y-99609806D01*
X141848369Y-99731526D01*
X141641526Y-99938369D01*
X141479011Y-100181590D01*
X141367069Y-100451843D01*
X141310001Y-100738741D01*
X141310001Y-101031261D01*
X141367069Y-101318159D01*
X141479011Y-101588412D01*
X141641526Y-101831633D01*
X141848369Y-102038476D01*
X142022761Y-102155001D01*
X141848369Y-102271526D01*
X141641526Y-102478369D01*
X141479011Y-102721590D01*
X141367069Y-102991843D01*
X141310001Y-103278741D01*
X141310001Y-103571261D01*
X141367069Y-103858159D01*
X141479011Y-104128412D01*
X141641526Y-104371633D01*
X141848369Y-104578476D01*
X142022761Y-104695001D01*
X141848369Y-104811526D01*
X141641526Y-105018369D01*
X141479011Y-105261590D01*
X141367069Y-105531843D01*
X141310001Y-105818741D01*
X141310001Y-106111261D01*
X141367069Y-106398159D01*
X141479011Y-106668412D01*
X141641526Y-106911633D01*
X141848369Y-107118476D01*
X142022761Y-107235001D01*
X141848369Y-107351526D01*
X141641526Y-107558369D01*
X141479011Y-107801590D01*
X141367069Y-108071843D01*
X141310001Y-108358741D01*
X141310001Y-108651261D01*
X141367069Y-108938159D01*
X141479011Y-109208412D01*
X141641526Y-109451633D01*
X141848369Y-109658476D01*
X142022761Y-109775001D01*
X141848369Y-109891526D01*
X141641526Y-110098369D01*
X141479011Y-110341590D01*
X141367069Y-110611843D01*
X141310001Y-110898741D01*
X141310001Y-111191261D01*
X141367069Y-111478159D01*
X141479011Y-111748412D01*
X141641526Y-111991633D01*
X141848369Y-112198476D01*
X142091590Y-112360991D01*
X142361843Y-112472933D01*
X142648741Y-112530001D01*
X142941261Y-112530001D01*
X143228159Y-112472933D01*
X143498412Y-112360991D01*
X143741633Y-112198476D01*
X143948476Y-111991633D01*
X144065001Y-111817241D01*
X144181526Y-111991633D01*
X144388369Y-112198476D01*
X144631590Y-112360991D01*
X144901843Y-112472933D01*
X145188741Y-112530001D01*
X145481261Y-112530001D01*
X145768159Y-112472933D01*
X146038412Y-112360991D01*
X146281633Y-112198476D01*
X146488476Y-111991633D01*
X146650991Y-111748412D01*
X146762933Y-111478159D01*
X146820001Y-111191261D01*
X146820001Y-110898741D01*
X146762933Y-110611843D01*
X146650991Y-110341590D01*
X146488476Y-110098369D01*
X146281633Y-109891526D01*
X146107241Y-109775001D01*
X146281633Y-109658476D01*
X146488476Y-109451633D01*
X146650991Y-109208412D01*
X146762933Y-108938159D01*
X146820001Y-108651261D01*
X146820001Y-108358741D01*
X146762933Y-108071843D01*
X146650991Y-107801590D01*
X146488476Y-107558369D01*
X146281633Y-107351526D01*
X146107241Y-107235001D01*
X146281633Y-107118476D01*
X146488476Y-106911633D01*
X146650991Y-106668412D01*
X146762933Y-106398159D01*
X146820001Y-106111261D01*
X146820001Y-105818741D01*
X146762933Y-105531843D01*
X146650991Y-105261590D01*
X146488476Y-105018369D01*
X146281633Y-104811526D01*
X146107241Y-104695001D01*
X146281633Y-104578476D01*
X146488476Y-104371633D01*
X146650991Y-104128412D01*
X146762933Y-103858159D01*
X146820001Y-103571261D01*
X146820001Y-103278741D01*
X146762933Y-102991843D01*
X146650991Y-102721590D01*
X146488476Y-102478369D01*
X146281633Y-102271526D01*
X146107241Y-102155001D01*
X146281633Y-102038476D01*
X146488476Y-101831633D01*
X146650991Y-101588412D01*
X146762933Y-101318159D01*
X146820001Y-101031261D01*
X146820001Y-100738741D01*
X146762933Y-100451843D01*
X146650991Y-100181590D01*
X146488476Y-99938369D01*
X146281633Y-99731526D01*
X146107241Y-99615001D01*
X146281633Y-99498476D01*
X146488476Y-99291633D01*
X146650991Y-99048412D01*
X146762933Y-98778159D01*
X146820001Y-98491261D01*
X146820001Y-98198741D01*
X146762933Y-97911843D01*
X146650991Y-97641590D01*
X146488476Y-97398369D01*
X146281633Y-97191526D01*
X146107241Y-97075001D01*
X146281633Y-96958476D01*
X146488476Y-96751633D01*
X146650991Y-96508412D01*
X146762933Y-96238159D01*
X146820001Y-95951261D01*
X146820001Y-95658741D01*
X146762933Y-95371843D01*
X146650991Y-95101590D01*
X146488476Y-94858369D01*
X146281633Y-94651526D01*
X146107241Y-94535001D01*
X146281633Y-94418476D01*
X146488476Y-94211633D01*
X146611843Y-94027001D01*
X147751801Y-94027001D01*
X147751800Y-113080800D01*
G36*
X148628100Y-92519949D02*
G01*
X148608579Y-92514027D01*
X148496627Y-92503001D01*
X148496624Y-92503001D01*
X148459201Y-92499315D01*
X148421778Y-92503001D01*
X146611843Y-92503001D01*
X146488476Y-92318369D01*
X146281633Y-92111526D01*
X146107241Y-91995001D01*
X146281633Y-91878476D01*
X146488476Y-91671633D01*
X146650991Y-91428412D01*
X146762933Y-91158159D01*
X146820001Y-90871261D01*
X146820001Y-90578741D01*
X146762933Y-90291843D01*
X146650991Y-90021590D01*
X146488476Y-89778369D01*
X146281633Y-89571526D01*
X146107241Y-89455001D01*
X146281633Y-89338476D01*
X146488476Y-89131633D01*
X146650991Y-88888412D01*
X146762933Y-88618159D01*
X146820001Y-88331261D01*
X146820001Y-88038741D01*
X146762933Y-87751843D01*
X146650991Y-87481590D01*
X146488476Y-87238369D01*
X146281633Y-87031526D01*
X146038412Y-86869011D01*
X145768159Y-86757069D01*
X145481261Y-86700001D01*
X145188741Y-86700001D01*
X144901843Y-86757069D01*
X144631590Y-86869011D01*
X144388369Y-87031526D01*
X144256514Y-87163381D01*
X144234503Y-87090821D01*
X144175538Y-86980507D01*
X144096186Y-86883816D01*
X143999495Y-86804464D01*
X143889181Y-86745499D01*
X143769483Y-86709189D01*
X143645001Y-86696929D01*
X141945001Y-86696929D01*
X141820519Y-86709189D01*
X141700821Y-86745499D01*
X141590507Y-86804464D01*
X141493816Y-86883816D01*
X141414464Y-86980507D01*
X141355499Y-87090821D01*
X141319189Y-87210519D01*
X141306929Y-87335001D01*
X141306929Y-89035001D01*
X141319189Y-89159483D01*
X141355499Y-89279181D01*
X141414464Y-89389495D01*
X141493816Y-89486186D01*
X141590507Y-89565538D01*
X141700821Y-89624503D01*
X141773381Y-89646514D01*
X141641526Y-89778369D01*
X141479011Y-90021590D01*
X141367069Y-90291843D01*
X141310001Y-90578741D01*
X141310001Y-90871261D01*
X141367069Y-91158159D01*
X141479011Y-91428412D01*
X141641526Y-91671633D01*
X141848369Y-91878476D01*
X142022761Y-91995001D01*
X141848369Y-92111526D01*
X141641526Y-92318369D01*
X141479011Y-92561590D01*
X141367069Y-92831843D01*
X141310001Y-93118741D01*
X141310001Y-93411261D01*
X141367069Y-93698159D01*
X141479011Y-93968412D01*
X141641526Y-94211633D01*
X141848369Y-94418476D01*
X142022761Y-94535001D01*
X141848369Y-94651526D01*
X141641526Y-94858369D01*
X141518159Y-95043001D01*
X140477821Y-95043001D01*
X140440398Y-95039315D01*
X140402975Y-95043001D01*
X140402973Y-95043001D01*
X140291021Y-95054027D01*
X140147384Y-95097599D01*
X140015007Y-95168356D01*
X139898977Y-95263579D01*
X139875120Y-95292649D01*
X136488770Y-98679000D01*
X135332463Y-98679000D01*
X135343520Y-98671612D01*
X135501612Y-98513520D01*
X135625824Y-98327624D01*
X135711383Y-98121067D01*
X135755000Y-97901788D01*
X135755000Y-97678212D01*
X135711383Y-97458933D01*
X135625824Y-97252376D01*
X135557647Y-97150342D01*
X135607123Y-97080206D01*
X135697446Y-96876864D01*
X135714119Y-96821874D01*
X135587954Y-96647000D01*
X134747000Y-96647000D01*
X134747000Y-96658026D01*
X134731788Y-96655000D01*
X134508212Y-96655000D01*
X134493000Y-96658026D01*
X134493000Y-96647000D01*
X134481974Y-96647000D01*
X134485000Y-96631788D01*
X134485000Y-96408212D01*
X134481974Y-96393000D01*
X134493000Y-96393000D01*
X134493000Y-96381974D01*
X134508212Y-96385000D01*
X134731788Y-96385000D01*
X134747000Y-96381974D01*
X134747000Y-96393000D01*
X135587954Y-96393000D01*
X135714119Y-96218126D01*
X135697446Y-96163136D01*
X135607123Y-95959794D01*
X135557647Y-95889658D01*
X135625824Y-95787624D01*
X135711383Y-95581067D01*
X135755000Y-95361788D01*
X135755000Y-95138212D01*
X135711383Y-94918933D01*
X135625824Y-94712376D01*
X135560759Y-94615000D01*
X135625824Y-94517624D01*
X135711383Y-94311067D01*
X135755000Y-94091788D01*
X135755000Y-93868212D01*
X135711383Y-93648933D01*
X135625824Y-93442376D01*
X135560759Y-93345000D01*
X135625824Y-93247624D01*
X135711383Y-93041067D01*
X135755000Y-92821788D01*
X135755000Y-92598212D01*
X135711383Y-92378933D01*
X135625824Y-92172376D01*
X135560759Y-92075000D01*
X135625824Y-91977624D01*
X135711383Y-91771067D01*
X135755000Y-91551788D01*
X135755000Y-91328212D01*
X135711383Y-91108933D01*
X135625824Y-90902376D01*
X135501612Y-90716480D01*
X135445500Y-90660368D01*
X135445500Y-89685150D01*
X135449494Y-89644600D01*
X135446200Y-89611157D01*
X135446200Y-89498635D01*
X135412190Y-89327655D01*
X135345477Y-89166595D01*
X135248624Y-89021645D01*
X135125355Y-88898376D01*
X134980405Y-88801523D01*
X134819345Y-88734810D01*
X134648365Y-88700800D01*
X133647774Y-88700800D01*
X133647202Y-88700687D01*
X133472872Y-88700916D01*
X133301936Y-88735151D01*
X133143026Y-88800973D01*
X133141715Y-88862169D01*
X133116914Y-88882110D01*
X133115483Y-88883815D01*
X133113757Y-88885223D01*
X133075661Y-88931273D01*
X133037253Y-88977046D01*
X133036180Y-88978998D01*
X133034761Y-88980713D01*
X133006349Y-89033261D01*
X132977549Y-89085647D01*
X132976875Y-89087771D01*
X132975817Y-89089728D01*
X132958166Y-89146750D01*
X132952742Y-89163847D01*
X132776373Y-89167626D01*
X132709872Y-89328774D01*
X132676087Y-89499798D01*
X132676316Y-89674128D01*
X132710551Y-89845064D01*
X132776373Y-90003974D01*
X132952972Y-90007758D01*
X132955588Y-90016421D01*
X132972438Y-90073675D01*
X132973469Y-90075647D01*
X132974113Y-90077780D01*
X133002188Y-90130581D01*
X133029855Y-90183503D01*
X133031249Y-90185237D01*
X133032295Y-90187204D01*
X133070083Y-90233537D01*
X133107510Y-90280086D01*
X133109215Y-90281517D01*
X133110623Y-90283243D01*
X133141705Y-90308956D01*
X133143026Y-90370627D01*
X133222998Y-90403629D01*
X133222998Y-90463748D01*
X133064250Y-90305000D01*
X132850000Y-90301928D01*
X132725518Y-90314188D01*
X132605820Y-90350498D01*
X132495506Y-90409463D01*
X132398815Y-90488815D01*
X132319463Y-90585506D01*
X132260498Y-90695820D01*
X132224188Y-90815518D01*
X132211928Y-90940000D01*
X132215000Y-91154250D01*
X132373750Y-91313000D01*
X133223000Y-91313000D01*
X133223000Y-91293000D01*
X133477000Y-91293000D01*
X133477000Y-91313000D01*
X133488026Y-91313000D01*
X133485000Y-91328212D01*
X133485000Y-91551788D01*
X133488026Y-91567000D01*
X133477000Y-91567000D01*
X133477000Y-92583000D01*
X133488026Y-92583000D01*
X133485000Y-92598212D01*
X133485000Y-92821788D01*
X133488026Y-92837000D01*
X133477000Y-92837000D01*
X133477000Y-92848026D01*
X133461788Y-92845000D01*
X133238212Y-92845000D01*
X133223000Y-92848026D01*
X133223000Y-92837000D01*
X132382046Y-92837000D01*
X132255881Y-93011874D01*
X132272554Y-93066864D01*
X132362877Y-93270206D01*
X132412353Y-93340342D01*
X132344176Y-93442376D01*
X132258617Y-93648933D01*
X132215000Y-93868212D01*
X132215000Y-94091788D01*
X132258617Y-94311067D01*
X132344176Y-94517624D01*
X132409241Y-94615000D01*
X132344176Y-94712376D01*
X132258617Y-94918933D01*
X132215000Y-95138212D01*
X132215000Y-95361788D01*
X132258617Y-95581067D01*
X132331905Y-95758000D01*
X131584025Y-95758000D01*
X131546600Y-95754314D01*
X131509174Y-95758000D01*
X131448769Y-95763949D01*
X131451960Y-91940000D01*
X132211928Y-91940000D01*
X132224188Y-92064482D01*
X132260498Y-92184180D01*
X132308070Y-92273180D01*
X132272554Y-92353136D01*
X132255881Y-92408126D01*
X132382046Y-92583000D01*
X133223000Y-92583000D01*
X133223000Y-91567000D01*
X132373750Y-91567000D01*
X132215000Y-91725750D01*
X132211928Y-91940000D01*
X131451960Y-91940000D01*
X131457159Y-85712300D01*
X148628100Y-85712300D01*
X148628100Y-92519949D01*
G37*
X148628100Y-92519949D02*
X148608579Y-92514027D01*
X148496627Y-92503001D01*
X148496624Y-92503001D01*
X148459201Y-92499315D01*
X148421778Y-92503001D01*
X146611843Y-92503001D01*
X146488476Y-92318369D01*
X146281633Y-92111526D01*
X146107241Y-91995001D01*
X146281633Y-91878476D01*
X146488476Y-91671633D01*
X146650991Y-91428412D01*
X146762933Y-91158159D01*
X146820001Y-90871261D01*
X146820001Y-90578741D01*
X146762933Y-90291843D01*
X146650991Y-90021590D01*
X146488476Y-89778369D01*
X146281633Y-89571526D01*
X146107241Y-89455001D01*
X146281633Y-89338476D01*
X146488476Y-89131633D01*
X146650991Y-88888412D01*
X146762933Y-88618159D01*
X146820001Y-88331261D01*
X146820001Y-88038741D01*
X146762933Y-87751843D01*
X146650991Y-87481590D01*
X146488476Y-87238369D01*
X146281633Y-87031526D01*
X146038412Y-86869011D01*
X145768159Y-86757069D01*
X145481261Y-86700001D01*
X145188741Y-86700001D01*
X144901843Y-86757069D01*
X144631590Y-86869011D01*
X144388369Y-87031526D01*
X144256514Y-87163381D01*
X144234503Y-87090821D01*
X144175538Y-86980507D01*
X144096186Y-86883816D01*
X143999495Y-86804464D01*
X143889181Y-86745499D01*
X143769483Y-86709189D01*
X143645001Y-86696929D01*
X141945001Y-86696929D01*
X141820519Y-86709189D01*
X141700821Y-86745499D01*
X141590507Y-86804464D01*
X141493816Y-86883816D01*
X141414464Y-86980507D01*
X141355499Y-87090821D01*
X141319189Y-87210519D01*
X141306929Y-87335001D01*
X141306929Y-89035001D01*
X141319189Y-89159483D01*
X141355499Y-89279181D01*
X141414464Y-89389495D01*
X141493816Y-89486186D01*
X141590507Y-89565538D01*
X141700821Y-89624503D01*
X141773381Y-89646514D01*
X141641526Y-89778369D01*
X141479011Y-90021590D01*
X141367069Y-90291843D01*
X141310001Y-90578741D01*
X141310001Y-90871261D01*
X141367069Y-91158159D01*
X141479011Y-91428412D01*
X141641526Y-91671633D01*
X141848369Y-91878476D01*
X142022761Y-91995001D01*
X141848369Y-92111526D01*
X141641526Y-92318369D01*
X141479011Y-92561590D01*
X141367069Y-92831843D01*
X141310001Y-93118741D01*
X141310001Y-93411261D01*
X141367069Y-93698159D01*
X141479011Y-93968412D01*
X141641526Y-94211633D01*
X141848369Y-94418476D01*
X142022761Y-94535001D01*
X141848369Y-94651526D01*
X141641526Y-94858369D01*
X141518159Y-95043001D01*
X140477821Y-95043001D01*
X140440398Y-95039315D01*
X140402975Y-95043001D01*
X140402973Y-95043001D01*
X140291021Y-95054027D01*
X140147384Y-95097599D01*
X140015007Y-95168356D01*
X139898977Y-95263579D01*
X139875120Y-95292649D01*
X136488770Y-98679000D01*
X135332463Y-98679000D01*
X135343520Y-98671612D01*
X135501612Y-98513520D01*
X135625824Y-98327624D01*
X135711383Y-98121067D01*
X135755000Y-97901788D01*
X135755000Y-97678212D01*
X135711383Y-97458933D01*
X135625824Y-97252376D01*
X135557647Y-97150342D01*
X135607123Y-97080206D01*
X135697446Y-96876864D01*
X135714119Y-96821874D01*
X135587954Y-96647000D01*
X134747000Y-96647000D01*
X134747000Y-96658026D01*
X134731788Y-96655000D01*
X134508212Y-96655000D01*
X134493000Y-96658026D01*
X134493000Y-96647000D01*
X134481974Y-96647000D01*
X134485000Y-96631788D01*
X134485000Y-96408212D01*
X134481974Y-96393000D01*
X134493000Y-96393000D01*
X134493000Y-96381974D01*
X134508212Y-96385000D01*
X134731788Y-96385000D01*
X134747000Y-96381974D01*
X134747000Y-96393000D01*
X135587954Y-96393000D01*
X135714119Y-96218126D01*
X135697446Y-96163136D01*
X135607123Y-95959794D01*
X135557647Y-95889658D01*
X135625824Y-95787624D01*
X135711383Y-95581067D01*
X135755000Y-95361788D01*
X135755000Y-95138212D01*
X135711383Y-94918933D01*
X135625824Y-94712376D01*
X135560759Y-94615000D01*
X135625824Y-94517624D01*
X135711383Y-94311067D01*
X135755000Y-94091788D01*
X135755000Y-93868212D01*
X135711383Y-93648933D01*
X135625824Y-93442376D01*
X135560759Y-93345000D01*
X135625824Y-93247624D01*
X135711383Y-93041067D01*
X135755000Y-92821788D01*
X135755000Y-92598212D01*
X135711383Y-92378933D01*
X135625824Y-92172376D01*
X135560759Y-92075000D01*
X135625824Y-91977624D01*
X135711383Y-91771067D01*
X135755000Y-91551788D01*
X135755000Y-91328212D01*
X135711383Y-91108933D01*
X135625824Y-90902376D01*
X135501612Y-90716480D01*
X135445500Y-90660368D01*
X135445500Y-89685150D01*
X135449494Y-89644600D01*
X135446200Y-89611157D01*
X135446200Y-89498635D01*
X135412190Y-89327655D01*
X135345477Y-89166595D01*
X135248624Y-89021645D01*
X135125355Y-88898376D01*
X134980405Y-88801523D01*
X134819345Y-88734810D01*
X134648365Y-88700800D01*
X133647774Y-88700800D01*
X133647202Y-88700687D01*
X133472872Y-88700916D01*
X133301936Y-88735151D01*
X133143026Y-88800973D01*
X133141715Y-88862169D01*
X133116914Y-88882110D01*
X133115483Y-88883815D01*
X133113757Y-88885223D01*
X133075661Y-88931273D01*
X133037253Y-88977046D01*
X133036180Y-88978998D01*
X133034761Y-88980713D01*
X133006349Y-89033261D01*
X132977549Y-89085647D01*
X132976875Y-89087771D01*
X132975817Y-89089728D01*
X132958166Y-89146750D01*
X132952742Y-89163847D01*
X132776373Y-89167626D01*
X132709872Y-89328774D01*
X132676087Y-89499798D01*
X132676316Y-89674128D01*
X132710551Y-89845064D01*
X132776373Y-90003974D01*
X132952972Y-90007758D01*
X132955588Y-90016421D01*
X132972438Y-90073675D01*
X132973469Y-90075647D01*
X132974113Y-90077780D01*
X133002188Y-90130581D01*
X133029855Y-90183503D01*
X133031249Y-90185237D01*
X133032295Y-90187204D01*
X133070083Y-90233537D01*
X133107510Y-90280086D01*
X133109215Y-90281517D01*
X133110623Y-90283243D01*
X133141705Y-90308956D01*
X133143026Y-90370627D01*
X133222998Y-90403629D01*
X133222998Y-90463748D01*
X133064250Y-90305000D01*
X132850000Y-90301928D01*
X132725518Y-90314188D01*
X132605820Y-90350498D01*
X132495506Y-90409463D01*
X132398815Y-90488815D01*
X132319463Y-90585506D01*
X132260498Y-90695820D01*
X132224188Y-90815518D01*
X132211928Y-90940000D01*
X132215000Y-91154250D01*
X132373750Y-91313000D01*
X133223000Y-91313000D01*
X133223000Y-91293000D01*
X133477000Y-91293000D01*
X133477000Y-91313000D01*
X133488026Y-91313000D01*
X133485000Y-91328212D01*
X133485000Y-91551788D01*
X133488026Y-91567000D01*
X133477000Y-91567000D01*
X133477000Y-92583000D01*
X133488026Y-92583000D01*
X133485000Y-92598212D01*
X133485000Y-92821788D01*
X133488026Y-92837000D01*
X133477000Y-92837000D01*
X133477000Y-92848026D01*
X133461788Y-92845000D01*
X133238212Y-92845000D01*
X133223000Y-92848026D01*
X133223000Y-92837000D01*
X132382046Y-92837000D01*
X132255881Y-93011874D01*
X132272554Y-93066864D01*
X132362877Y-93270206D01*
X132412353Y-93340342D01*
X132344176Y-93442376D01*
X132258617Y-93648933D01*
X132215000Y-93868212D01*
X132215000Y-94091788D01*
X132258617Y-94311067D01*
X132344176Y-94517624D01*
X132409241Y-94615000D01*
X132344176Y-94712376D01*
X132258617Y-94918933D01*
X132215000Y-95138212D01*
X132215000Y-95361788D01*
X132258617Y-95581067D01*
X132331905Y-95758000D01*
X131584025Y-95758000D01*
X131546600Y-95754314D01*
X131509174Y-95758000D01*
X131448769Y-95763949D01*
X131451960Y-91940000D01*
X132211928Y-91940000D01*
X132224188Y-92064482D01*
X132260498Y-92184180D01*
X132308070Y-92273180D01*
X132272554Y-92353136D01*
X132255881Y-92408126D01*
X132382046Y-92583000D01*
X133223000Y-92583000D01*
X133223000Y-91567000D01*
X132373750Y-91567000D01*
X132215000Y-91725750D01*
X132211928Y-91940000D01*
X131451960Y-91940000D01*
X131457159Y-85712300D01*
X148628100Y-85712300D01*
X148628100Y-92519949D01*
M02*
